<svg xmlns="http://www.w3.org/2000/svg" viewBox="0 0 137.83 149.56"><title>Gift</title><g id="Ebene_2" data-name="Ebene 2"><g id="Ebene_2-2" data-name="Ebene 2"><path d="M99.22,31.77a18.78,18.78,0,0,0,4.4-12.22A19.61,19.61,0,0,0,84.07,0,19,19,0,0,0,68.91,7.33a19.48,19.48,0,0,0-34.7,12.22c0,4.89,2,8.8,4.4,12.22H0V61.09H5.86v88.47H132.94V60.61h4.89V31.77ZM84.07,8.31A10.85,10.85,0,0,1,94.82,19.06,10.84,10.84,0,0,1,84.07,29.81c-5.87.49-10.76-4.39-10.76-10.75A10.85,10.85,0,0,1,84.07,8.31Zm-30.31,0A10.85,10.85,0,0,1,64.52,19.06a10.76,10.76,0,0,1-21.51,0A10.85,10.85,0,0,1,53.76,8.31Zm68.67,97.05H73.56v34.21H64.27V105.36H15.4V95.1H64.27V60.89h9.29V95.1h48.87Z"/></g></g></svg>