<svg xmlns="http://www.w3.org/2000/svg" viewBox="0 0 107.24 149.56"><defs><style>.cls-1{fill:#020400;}</style></defs><title>Figurines_1</title><g id="Ebene_2" data-name="Ebene 2"><g id="Ebene_2-2" data-name="Ebene 2"><path class="cls-1" d="M37.44,96.41A6,6,0,0,0,33.21,100a26.81,26.81,0,0,0-1.54,4.85,63.53,63.53,0,0,1-2.76,8.63c.7-.58,1.43-1.14,2.11-1.75s1.3-1.29,2-1.94c.34.29.08.51,0,.7a25.2,25.2,0,0,1-16.74,13.44,15.49,15.49,0,0,1-11.33-1,7.65,7.65,0,0,1-2.8-2.33C4.75,122,7.44,123.2,10.89,123c-6.13-2.66-9.12-7.5-10.89-13.41,3.63,3.34,7.67,5.46,12.75,4.8-3-.29-5.91-.84-8.25-3.12.42-.25.64,0,.87.13,4.9,2.57,9.65,1.71,14.29-.72a6,6,0,0,0,1.94-2.52c1.53-2.61,2.82-5.36,4.48-7.9,2.46-3.78,5.69-6.46,10.25-7.3"/><path d="M53.3,117a46.75,46.75,0,0,0-.15,8s1.55,3.32-2,7.73c0,0-2.48,6.14-5.2,4.43,0,0-2.13-5.8,2.32-6.87,0,0,.8-6.48.21-10A38,38,0,0,0,53.3,117ZM99.08,63.38l1.17,2.08s2.1-.92,3.39-5.4a9.19,9.19,0,0,0,.25-2.33s-1.78,2.37-2.48,3.12c-.52.6-2.33,2.53-2.33,2.53ZM36,93s-1.87-8.23,14.14-23c2.51-2.3,8.46-10.91,8.46-10.91s0-.84,0-2.32c.34-2.38,1.12-5.92,2.85-7.75a10.39,10.39,0,0,0-2.59,3.09c.1-1.39.25-2.94.45-4.6.61-1.87,2.38-6.69,5-8.38,0,0-1.68.56-4.25,3.49A72.36,72.36,0,0,1,62.6,32.49c.45-1.16,2.77-6.8,5.86-8.42A9.38,9.38,0,0,0,65.22,26c.16-.29.29-.58.45-.87a33.53,33.53,0,0,1,4.39-6.58c.42-.49.84-1,1.25-1.42,1.45-1.32,3.19-2.59,4.84-2.82a7,7,0,0,0-2.66.45,30.76,30.76,0,0,1,9.19-6.71S84.93,4,83.86,0c0,0,2.67,4.41,2.35,6.81,0,0,1.51-2.18,1.37-3.66a7.15,7.15,0,0,1,.72,4S92.38,7,95,9.53c0,0,6.85,2.55,9.75,2.44,0,0,4.17,5.4,1.62,6.42h0s.89,1.23-1.14,2.27c-.89.45-2.3,1.67-3.88.09L99.88,20s-3.63,3.6-7.4,4c-5,.32-6.82-5.7-6.82-5.7a11.89,11.89,0,0,0,2.47,6.38c-1.74,2.35-4.85,7.92-3.91,16.41.13,1.09,1.23,5.31,3.17,2.65,1.45-2,3.27-6.55,4.64-8.85l.22-.31c1-1.17,2.28-3.64,5.52-.53,2.15,2.07,4.45,4.43,6.16,10.64.82,2.91,2.39,7.3,0,10.84,0,0-3.54,4.46-4.2,5.41a15.22,15.22,0,0,1-5.64,4.32c-.75.25-.7,0-3.06.63l1.15-7.32s3.66-.49,5.33-2.06c0,0,5.91-5.84-.88-13.8,0,0-.81-.21-1.24,2.47-.76,4.8-3.44,15.45-6.86,18.16a6.59,6.59,0,0,1-1.17,1.08c-4.6,2.55-8.62-4.61-8.55-4.32,1.14,5,2.93,7.56,4.48,8.91-2.22,6.25-8,19.13-18.22,21.87-1.91-2.71-5.9-5.35-14.11-2.19,0,0,8.4-1.21,11.72,2.63h0a5.06,5.06,0,0,1,.59.84A7,7,0,0,1,64,95.62c0,.24-.05.47-.08.73l0,0c-.15,2.33-1.11,5.64-3.82,10-7.57,9.73-11.8,11.41-12.93,11.71a1.5,1.5,0,0,0-.88.29c-.47.32-3,3.93-1.92,10.42,0,0,2.31,13.72-8,19.13a6.41,6.41,0,0,1-1-6.72s3.18-2.67,3.89-2.33a18.84,18.84,0,0,1,.27-5.62l-.44-9.82s-1.41-5.44,1.76-6.74c0,0,2-1.75,2.34-7,0,0,.62-1.55-1.52-2.78a13.79,13.79,0,0,1-5.44-8.34Z"/><path d="M14.7,149.56c-.74-4.4.84-7.23,4.27-9.69,5.24-3.77,10-8.32,15.13-12.31A8.62,8.62,0,0,1,39,125.8c11-.15,22-.13,33,0a7.21,7.21,0,0,1,4.19,1.44c5.92,4.69,11.62,9.72,17.58,14.35,2.92,2.26,1.89,5.14,1.82,8Z"/></g></g></svg>