<svg xmlns="http://www.w3.org/2000/svg" viewBox="0 0 107.09 147.75"><title>Mens_collection_1</title><g id="Ebene_2" data-name="Ebene 2"><g id="Ebene_2-2" data-name="Ebene 2"><path d="M72,65.31a38.63,38.63,0,0,1-37,0A40.27,40.27,0,0,0,0,105.19v32.6l.08.51,2.25.7a189.66,189.66,0,0,0,43.33,8.41l3.1-47.49a.62.62,0,0,1,.62-.56H57.7a.6.6,0,0,1,.61.56l3.36,47.83c26.69-.82,42.09-8.39,43.1-8.89l2.09-1.07h.23v-32.6A40.27,40.27,0,0,0,72,65.31ZM58.62,96.86H48.74L40.15,79.09A3.06,3.06,0,0,1,43.22,76H63.86a3.08,3.08,0,0,1,3.08,3.07Z"/><path d="M85,31.42A31.42,31.42,0,1,1,53.55,0,31.41,31.41,0,0,1,85,31.42Z"/></g></g></svg>