<svg xmlns="http://www.w3.org/2000/svg" viewBox="0 0 64.35 150.05"><title>Watches_3</title><g id="Ebene_2" data-name="Ebene 2"><g id="Ebene_2-2" data-name="Ebene 2"><path d="M32.17,42.85A32.18,32.18,0,1,0,64.35,75,32.18,32.18,0,0,0,32.17,42.85Zm0,6.84A1.35,1.35,0,1,1,30.83,51,1.34,1.34,0,0,1,32.17,49.69Zm-24,26.68A1.35,1.35,0,1,1,9.53,75,1.35,1.35,0,0,1,8.18,76.37Zm24,24A1.35,1.35,0,1,1,33.52,99,1.35,1.35,0,0,1,32.17,100.37Zm13-23.16H30.28V57.66h4V73.2H45.22Zm11-.84A1.35,1.35,0,1,1,57.52,75,1.34,1.34,0,0,1,56.17,76.37Z"/><path d="M32.17,37.4a37.43,37.43,0,0,1,19.08,5.19L47.43,0H16.92L13.1,42.59A37.39,37.39,0,0,1,32.17,37.4Z"/><path d="M32.17,112.66a37.4,37.4,0,0,1-19.07-5.2l3.82,42.59H47.43l3.82-42.59A37.44,37.44,0,0,1,32.17,112.66Z"/></g></g></svg>