<svg xmlns="http://www.w3.org/2000/svg" viewBox="0 0 33.3 40.3"><style type="text/css"> .st0{fill:#000000;} </style><path class="st0" d="M30.6 6h-6.4l-3-3c-0.2-0.2-0.4-0.3-0.6-0.3h-6.9c-0.2 0-0.5 0.1-0.6 0.3l-3 3H3.6C3.1 6 2.7 6.4 2.7 6.9s0.4 0.9 0.9 0.9h1l2.5 27.9c0 0.5 0.4 0.8 0.9 0.8h18.2c0.5 0 0.8-0.4 0.9-0.8l2.5-27.9h1c0.5 0 0.9-0.4 0.9-0.9S31.1 6 30.6 6zM25.4 34.7H8.8l-2.4-27h3.9c0.2 0 0.5-0.1 0.6-0.3l3-3h6.2l3 3c0.2 0.2 0.4 0.3 0.6 0.3h3.9L25.4 34.7z"/><path class="st0" d="M10.9 10.5c-0.5 0-0.9 0.5-0.8 1l1.5 20.1c0 0.5 0.4 0.8 0.9 0.8 0 0 0 0 0.1 0 0.5 0 0.9-0.5 0.8-1l-1.5-20.1C11.8 10.8 11.4 10.4 10.9 10.5z"/><path class="st0" d="M23.2 10.5c-0.5 0-0.9 0.3-1 0.8l-1.5 20.1c0 0.5 0.3 0.9 0.8 1 0 0 0 0 0.1 0 0.5 0 0.9-0.4 0.9-0.8l1.5-20.1C24.1 10.9 23.7 10.5 23.2 10.5z"/><path class="st0" d="M17.1 10.5c-0.5 0-0.9 0.4-0.9 0.9v20.1c0 0.5 0.4 0.9 0.9 0.9 0.5 0 0.9-0.4 0.9-0.9V11.3C18 10.9 17.6 10.5 17.1 10.5z"/></svg>