<svg xmlns="http://www.w3.org/2000/svg" viewBox="0 0 184.03 149.56"><title>Fashion_accessories</title><g id="Ebene_2" data-name="Ebene 2"><g id="Ebene_2-2" data-name="Ebene 2"><path d="M46.88,87.16H70.82V75.26h42.5v11.9h23.19A34.62,34.62,0,0,0,170.4,59.43l-9.6-31.94H127.37A32.94,32.94,0,0,0,94.93,0H89.1A32.94,32.94,0,0,0,56.66,27.49H23.23l-10,33.16A34.62,34.62,0,0,0,46.88,87.16ZM89.1,10.78h5.83a22.14,22.14,0,0,1,21.43,16.71H67.67A22.14,22.14,0,0,1,89.1,10.78Z"/><path d="M182.34,99.12l-7-23.17h0a45.36,45.36,0,0,1-38.86,22H113.32v11.9H70.82V97.94H46.88A45.36,45.36,0,0,1,8.45,76.64h0L1.69,99.12a39.17,39.17,0,0,0,37.5,50.44H144.84a39.16,39.16,0,0,0,37.5-50.44Z"/><rect x="81.6" y="86.04" width="20.93" height="13.02"/></g></g></svg>