<svg xmlns="http://www.w3.org/2000/svg" viewBox="0 0 128.28 137.4"><title>Fragrances-Beauty</title><g id="Ebene_2" data-name="Ebene 2"><g id="Ebene_2-2" data-name="Ebene 2"><path d="M20.24,21.1l7.23,4.12a3.49,3.49,0,0,0,1.75.47A3.55,3.55,0,0,0,31,19.06l-7.23-4.12a3.54,3.54,0,1,0-3.51,6.16Z"/><path d="M22,40.93a3.62,3.62,0,0,0,1.76-.46L31,36.34a3.54,3.54,0,0,0-3.51-6.16L20.24,34.3A3.55,3.55,0,0,0,22,40.93Z"/><path d="M120.75,7.2C115.55,2.49,108,0,98.76,0,87.56,0,76.67,6.2,71.18,9.9c-1,.67-7.45,5.09-11.19,9.6-.15.18-.22.29-.46.31A.61.61,0,0,1,59,19.6c-2.77-2.24-7.22-3.69-12.23-3.69-8.39,0-8,4.05-8,9.06,0,4.83-.31,8.77,7.2,9.05.12,0,.37,0,.37.61l-.06,5.51a.6.6,0,0,1-.64.57H42a2.51,2.51,0,0,0-2.5,2.5V49.1a1.73,1.73,0,0,1-.18.68,1.35,1.35,0,0,1-.83.44A50.37,50.37,0,0,0,0,99.16c0,15,11.81,38.24,24.53,38.24H76c14.13,0,24.67-23.07,24.67-38.24A50.37,50.37,0,0,0,65,51a.53.53,0,0,1-.38-.27,1.19,1.19,0,0,1-.09-.44V43.21a2.51,2.51,0,0,0-2.5-2.5H58.44c-.52,0-.65-.73-.65-.73l-.15-7.89a1.16,1.16,0,0,1,.58-1.15L59,30.4a.48.48,0,0,1,.45-.08c.17,0,.32.16.49.38,3.55,4.49,9.7,8.68,11.32,9.74,5.41,3.55,16.19,9.5,27.55,9.5,9.18,0,16.79-2.49,22-7.2A23.22,23.22,0,0,0,128.28,25,23.22,23.22,0,0,0,120.75,7.2Z"/></g></g></svg>