<svg xmlns="http://www.w3.org/2000/svg" viewBox="0 0 75.66 129.56"><title>Home_accessories_1</title><g id="Ebene_2" data-name="Ebene 2"><g id="Ebene_2-2" data-name="Ebene 2"><path d="M75.66,26.05A49.35,49.35,0,0,0,69.4,1.69L68.41,0H7.2L6.26,1.69A49.35,49.35,0,0,0,0,26.05C0,48.27,14.11,66.68,32.47,69.7v51.85c-10.59.45-18.45,2-18.45,4,0,2.22,10.73,4,24,4s24-1.8,24-4c0-2-7.9-3.54-18.44-4V69.65C61.75,66.42,75.66,48.13,75.66,26.05ZM37.84,60.11c-15.17,0-27.48-14.82-27.48-33a37.62,37.62,0,0,1,4-17h47a37.62,37.62,0,0,1,4,17.05C65.3,45.34,53,60.11,37.84,60.11Z"/></g></g></svg>