<svg xmlns="http://www.w3.org/2000/svg" viewBox="0 0 43 43"><defs><style>.cls-1{fill:#ffffff;isolation:isolate;}</style></defs><title>hotspot</title><g class="cls-1"><g><path d="M23.9,5.5A19.5,19.5,0,1,1,4.4,25,19.52,19.52,0,0,1,23.9,5.5m0-2A21.5,21.5,0,1,0,45.4,25,21.5,21.5,0,0,0,23.9,3.5h0Z" transform="translate(-2.4 -3.5)"/></g><path d="M23.9,10.66A14.34,14.34,0,1,0,38.24,25,14.34,14.34,0,0,0,23.9,10.66Zm4.53,15.75H25.3v3.13H22.49V26.41H19.36V23.59h3.13V20.47H25.3v3.13h3.13v2.81Z" transform="translate(-2.4 -3.5)"/></g></svg>