<svg version="1.1" xmlns="http://www.w3.org/2000/svg" x="0" y="0" viewBox="0 0 27.9 32" xml:space="preserve"><style type="text/css">.st0{fill-rule:evenodd;clip-rule:evenodd}</style><g fill="#000000" id="Group_123_1_"><path d="M22.7 11.7v16.2H6V11.7h16.7m1.1-1.1h-19v18.5h19V10.6z" id="bag_copy"/><path d="M14.1 3.1c1.7 0 3.1 1.3 3.1 3v5.4h1.1V6.2C18.3 3.9 16.4 2 14 2c-2.3 0-4.3 1.9-4.3 4.2v5.3h1.1V6.1c.2-1.6 1.6-3 3.3-3" id="bag2_copy"/><path class="st0" d="M15.4 20.1c.7-.4 1.1-1.1 1.1-1.9 0-1.2-1-2.1-2.1-2.1-1.2 0-2.1.9-2.1 2.1 0 .8.4 1.4 1 1.8l-1.4 3.9v.1H16.9v-.1l-1.5-3.8z" id="Shape_16"/></g></svg>