<?xml version="1.0" encoding="utf-8"?>
<!-- Generator: Adobe Illustrator 21.1.0, SVG Export Plug-In . SVG Version: 6.00 Build 0)  -->
<!DOCTYPE svg PUBLIC "-//W3C//DTD SVG 1.1//EN" "http://www.w3.org/Graphics/SVG/1.1/DTD/svg11.dtd">
<svg version="1.1" id="Layer_1" xmlns="http://www.w3.org/2000/svg" xmlns:xlink="http://www.w3.org/1999/xlink" x="0px" y="0px"
	 viewBox="0 0 36.6 32.4" style="enable-background:new 0 0 36.6 32.4;" xml:space="preserve">
<style type="text/css">
	.st0{fill:#000000;}
</style>
<g>
	<path class="st0" d="M32.9,14h-4.6c-2.1,0-3.8-1.9-3.8-4.1V8c-4-0.4-8.1-0.4-12.3,0v1.9c0,2.1-1.8,4.1-3.8,4.1H3.8
		C1.8,14,0,12.1,0,9.9V6.6c0-2.4,1.9-4.7,4.4-5.2c9.2-1.9,18.6-1.9,27.8,0l0,0c2.5,0.5,4.4,2.8,4.4,5.2v3.3
		C36.6,12.1,34.9,14,32.9,14z M18.4,6.2c2.3,0,4.7,0.1,7,0.4c0.4,0,0.7,0.4,0.7,0.7v2.6c0,1.3,1.1,2.6,2.3,2.6h4.6
		c1.2,0,2.3-1.3,2.3-2.6V6.6c0-1.7-1.3-3.3-3.2-3.7l0,0c-9-1.9-18.2-1.9-27.2,0C3,3.3,1.6,4.9,1.6,6.6v3.3c0,1.3,1.1,2.6,2.3,2.6
		h4.6c1.2,0,2.3-1.3,2.3-2.6V7.3c0-0.4,0.3-0.7,0.7-0.7C13.7,6.3,16,6.2,18.4,6.2z"/>
	<path class="st0" d="M26.9,32.4H9.8c-2.4,0-4.3-1.9-4.3-4.3V15.4h1.7v12.8c0,1.4,1.2,2.6,2.6,2.6h17.1c1.4,0,2.6-1.2,2.6-2.6V15.4
		h1.7v12.8C31.1,30.5,29.2,32.4,26.9,32.4z"/>
	<g>
		<g>
			<g>
				<polygon class="st0" points="14.1,17.1 12.3,17.1 12.3,18.8 14.1,18.8 				"/>
			</g>
		</g>
		<g>
			<g>
				<polygon class="st0" points="19.2,17.1 17.5,17.1 17.5,18.8 19.2,18.8 				"/>
			</g>
		</g>
		<g>
			<g>
				<polygon class="st0" points="24.3,17.1 22.6,17.1 22.6,18.8 24.3,18.8 				"/>
			</g>
		</g>
		<g>
			<g>
				<polygon class="st0" points="14.1,20.5 12.3,20.5 12.3,22.2 14.1,22.2 				"/>
			</g>
		</g>
		<g>
			<g>
				<polygon class="st0" points="19.2,20.5 17.5,20.5 17.5,22.2 19.2,22.2 				"/>
			</g>
		</g>
		<g>
			<g>
				<polygon class="st0" points="24.3,20.5 22.6,20.5 22.6,22.2 24.3,22.2 				"/>
			</g>
		</g>
		<g>
			<g>
				<polygon class="st0" points="14.1,23.9 12.3,23.9 12.3,25.6 14.1,25.6 				"/>
			</g>
		</g>
		<g>
			<g>
				<polygon class="st0" points="19.2,23.9 17.5,23.9 17.5,25.6 19.2,25.6 				"/>
			</g>
		</g>
		<g>
			<g>
				<polygon class="st0" points="24.3,23.9 22.6,23.9 22.6,25.6 24.3,25.6 				"/>
			</g>
		</g>
	</g>
</g>
</svg>
