<svg xmlns="http://www.w3.org/2000/svg" viewBox="0 0 187.28 149.5"><title>Member_products_2</title><g id="Ebene_2" data-name="Ebene 2"><g id="Ebene_2-2" data-name="Ebene 2"><path d="M185.91,0H1.38A1.38,1.38,0,0,0,0,1.38V148.12a1.38,1.38,0,0,0,1.38,1.38H185.91a1.37,1.37,0,0,0,1.37-1.38V1.38A1.37,1.37,0,0,0,185.91,0Zm-140,104.28c-7.08,1.41-14.11,1.36-21-1.19-.63-.24-1.17-.44-1.62-.63a23.76,23.76,0,0,1-3.21-1.28V86.5h2.36a12,12,0,0,0,.36,3.87,16.09,16.09,0,0,0,11.86,9.41c5.33,1.17,10.53.81,15.13-2.53A11.14,11.14,0,0,0,53.5,84a8.33,8.33,0,0,0-6.09-4.74C42.57,78,37.67,77.1,32.88,75.74a36.27,36.27,0,0,1-7.81-3.24c-6.69-3.75-7.21-12.34-4.23-17.63s8-7.91,13.63-9.38a39.23,39.23,0,0,1,16.08-.67A20.87,20.87,0,0,1,56.1,46a6,6,0,0,1,1,.39c.51.2,1,.43,1.57.69v13H56.35s.74-4.87-4.88-8.49h0A16.74,16.74,0,0,0,47.41,50c-5.64-1.43-11.14-1.08-16.24,2a9.35,9.35,0,0,0-4.46,7.63,7,7,0,0,0,5,7.61A107.48,107.48,0,0,0,42.22,70c4.41,1,8.9,1.75,12.94,4a12.3,12.3,0,0,1,6.6,10.26C62.85,95.6,55.71,102.33,45.94,104.28Zm71.41-5.61a38.69,38.69,0,0,1-6.58,3.57c-13.15,6.12-31.62,3.07-39.29-12.47-5.63-11.38-4.3-27.46,5.69-36.32a34.08,34.08,0,0,1,28.15-8.64c.78.1,1.55.25,2.31.42a23.2,23.2,0,0,1,7.41,2.2V61.09h-2.36a9.72,9.72,0,0,0-3.33-8,17.89,17.89,0,0,0-9.69-3.23C89,49.07,79.57,55.17,77,66.32c-2.6,11.42,3,25.85,14.26,31.07,5.76,2.68,11.58,2.32,17.36.16,1-.38,2-.81,3-1.26,1.19-.77,5.65-3.71,5.65-3.71Zm34.89,5.61c-7.07,1.41-14.11,1.36-21-1.19-.63-.24-1.16-.44-1.62-.63a24.29,24.29,0,0,1-3.21-1.28V86.5h2.36a11.82,11.82,0,0,0,.37,3.87A16.05,16.05,0,0,0,141,99.78c5.33,1.17,10.53.81,15.12-2.53A11.12,11.12,0,0,0,159.8,84a8.31,8.31,0,0,0-6.09-4.74C148.88,78,144,77.1,139.18,75.74a36.19,36.19,0,0,1-7.8-3.24c-6.7-3.75-7.21-12.34-4.23-17.63s8-7.91,13.62-9.38a39.28,39.28,0,0,1,16.09-.67A20.94,20.94,0,0,1,162.41,46a6.22,6.22,0,0,1,1,.39c.51.2,1,.43,1.58.69v13h-2.37s.75-4.87-4.87-8.49h0A16.74,16.74,0,0,0,153.72,50c-5.64-1.43-11.14-1.08-16.24,2A9.36,9.36,0,0,0,133,59.65a7,7,0,0,0,5,7.61A107.29,107.29,0,0,0,148.52,70c4.41,1,8.91,1.75,12.94,4a12.31,12.31,0,0,1,6.61,10.26C169.16,95.6,162,102.33,152.24,104.28Z"/></g></g></svg>