<svg xmlns="http://www.w3.org/2000/svg" viewBox="0 0 136.65 136.65"><title>Sunglasses</title><g id="Ebene_2" data-name="Ebene 2"><g id="Ebene_2-2" data-name="Ebene 2"><path d="M29.16,123.52l-.6,7s-.36,5.72,4.7,6.15c0,0,5.31.27,4.94-5.32l-.57-8A18.5,18.5,0,0,1,29.16,123.52Z"/><path d="M123.52,29.16l7-.6s5.73-.36,6.16,4.7c0,0,.27,5.31-5.32,4.94l-8-.57A18.5,18.5,0,0,0,123.52,29.16Z"/><path d="M105.92,5A32.82,32.82,0,0,0,65.26,56c.71.72,1.45,1.38,2.21,2a16.58,16.58,0,0,0-9.53,9.35c-.61-.73-1.25-1.44-1.93-2.12A32.82,32.82,0,0,0,5,105.92a4.54,4.54,0,0,0,5.78,6.9A32.82,32.82,0,0,0,60.87,71.46c.24-1.6,1.81-8.67,10.65-10.55a32.82,32.82,0,0,0,41.3-50.12A4.54,4.54,0,0,0,105.92,5Z"/></g></g></svg>