<svg xmlns="http://www.w3.org/2000/svg" width="540" height="540" viewBox="0 0 540 540"><g fill="#b8b7b6"><path d="M540 260h-30.2226563C504.6679688 135.409668 404.5898438 35.3320313 280 30.2231445V0h-20v30.2231445C135.4091797 35.3320313 35.331543 135.409668 30.2226563 260H0v20h30.2226563C35.331543 404.5898438 135.4091797 504.6679688 260 509.7773438V540h20v-30.2226563C404.5898438 504.6679688 504.6679688 404.5898438 509.7773438 280H540V260zM280 489.7636719V430h-20v59.7636719C146.4560547 484.6826172 55.3173828 393.5429688 50.2363281 280H110v-20H50.2363281C55.3173828 146.4555664 146.4560547 55.3168945 260 50.2353516V110h20V50.2353516C393.5429688 55.3168945 484.6826172 146.4555664 489.7636719 260H430v20h59.7636719C484.6826172 393.5429688 393.5429688 484.6826172 280 489.7636719z"/></g></svg>