<svg xmlns="http://www.w3.org/2000/svg" viewBox="0 0 79.45 150"><title>Watches_1</title><g id="Ebene_2" data-name="Ebene 2"><g id="Ebene_2-2" data-name="Ebene 2"><path d="M39.73,35.28A39.73,39.73,0,1,0,79.45,75,39.72,39.72,0,0,0,39.73,35.28Zm0,70.42A30.7,30.7,0,1,1,70.42,75a30.73,30.73,0,0,1-30.69,30.7Z"/><path d="M39.72,56.94a3.61,3.61,0,0,0-3.61,3.61V75a3.61,3.61,0,0,0,3.61,3.61H54.17a3.61,3.61,0,0,0,0-7.22H43.34V60.55A3.62,3.62,0,0,0,39.72,56.94Z"/><path d="M39.73,44.3a30.54,30.54,0,0,1,21.66,9V0H18.06V53.27A30.58,30.58,0,0,1,39.73,44.3Z"/><path d="M39.73,105.7a30.58,30.58,0,0,1-21.67-9V150H61.39V96.72A30.54,30.54,0,0,1,39.73,105.7Z"/></g></g></svg>