<svg xmlns="http://www.w3.org/2000/svg" viewBox="0 0 71.64 149.93"><title>Watches_2</title><g id="Ebene_2" data-name="Ebene 2"><g id="Ebene_2-2" data-name="Ebene 2"><path d="M35.82,40.35A35.82,35.82,0,1,0,71.64,76.17,35.86,35.86,0,0,0,35.82,40.35ZM50.39,81.48H35.13a3.8,3.8,0,0,1-3.81-3.81V62.41a3.82,3.82,0,0,1,7.63,0V73.86H50.39a3.81,3.81,0,0,1,0,7.62Z"/><path d="M35.82,32.23a43.79,43.79,0,0,1,22.89,6.42V0H12.94V38.65A43.75,43.75,0,0,1,35.82,32.23Z"/><path d="M35.82,120.12a43.67,43.67,0,0,1-22.88-6.43v36.24H58.71V113.69A43.7,43.7,0,0,1,35.82,120.12Z"/></g></g></svg>