<svg xmlns="http://www.w3.org/2000/svg" viewBox="0 0 31.5 31.5"><style type="text/css"> .st0{fill:none;stroke:#000000;stroke-width:0.3;stroke-linecap:round;stroke-linejoin:round;stroke-miterlimit:10;} </style><polygon class="st0" points="1.8 18.3 1.6 16.5 1.6 14.6 1.8 12.8 2.3 11 3 9.3 3.9 7.7 5.1 6.2 6.4 4.9 7.9 3.7 9.5 2.8 11.2 2.1 13 1.6 14.8 1.4 16.7 1.4 18.5 1.6 20.3 2.1 22 2.8 23.6 3.7 25.1 4.9 26.4 6.2 27.6 7.7 28.5 9.3 29.2 11 29.6 12.8 29.9 14.6 29.9 16.5 29.6 18.3 29.2 20.1 28.5 21.8 27.6 23.4 26.4 24.9 25.1 26.2 23.6 27.4 22 28.3 20.3 29 18.5 29.4 16.7 29.7 14.8 29.7 13 29.4 11.2 29 9.5 28.3 7.9 27.4 6.4 26.2 5.1 24.9 3.9 23.4 3 21.8 2.3 20.1 "/><polyline class="st0" points="15.7 15.5 12.5 14.9 8.9 16.9 12.9 17.4 15.7 15.6 15.7 15.5 15.8 15.6 "/><polyline class="st0" points="12.9 17.4 11.9 21.3 15.1 18.8 15.7 15.6 "/><polyline class="st0" points="8.9 16.9 6.8 21.5 11.9 21.3 "/><polyline class="st0" points="12.5 14.9 10 11.7 5.2 13.4 8.9 16.9 "/><polyline class="st0" points="15.7 15.5 13.8 12.7 10 11.7 "/><polyline class="st0" points="15.1 18.8 17.1 22.4 17.6 18.3 15.8 15.6 15.8 15.5 "/><polyline class="st0" points="15.8 15.6 19 16.2 22.6 14.2 18.6 13.6 15.8 15.5 "/><polyline class="st0" points="17.6 18.3 21.5 19.4 19 16.2 "/><polyline class="st0" points="17.1 22.4 21.7 24.4 21.5 19.4 "/><polyline class="st0" points="11.9 21.3 13.6 26 17.1 22.4 "/><polyline class="st0" points="21.5 19.4 26.2 17.7 22.6 14.2 "/><polyline class="st0" points="18.6 13.6 19.6 9.8 16.4 12.3 15.8 15.5 "/><polyline class="st0" points="16.4 12.3 14.4 8.7 13.8 12.7 "/><polyline class="st0" points="19.6 9.8 17.9 5 14.4 8.7 "/><polyline class="st0" points="22.6 14.2 24.6 9.6 19.6 9.8 "/><polyline class="st0" points="14.4 8.7 9.8 6.6 10 11.7 "/><polyline class="st0" points="6.8 21.5 8.3 26.7 13.6 26 "/><polyline class="st0" points="5.2 13.4 2.6 18.1 6.8 21.5 "/><polyline class="st0" points="26.2 17.7 28.9 12.9 24.6 9.6 "/><polyline class="st0" points="21.7 24.4 26.9 23 26.2 17.7 "/><polyline class="st0" points="13.6 26 18.3 28.7 21.7 24.4 "/><polyline class="st0" points="24.6 9.6 23.2 4.4 17.9 5 13.1 2.4 9.8 6.6 4.6 8.1 5.2 13.4 "/><line class="st0" x1="4.6" y1="8.1" x2="3.9" y2="7.7"/><line class="st0" x1="1.8" y1="12.8" x2="5.2" y2="13.4"/><line class="st0" x1="2.6" y1="18.1" x2="1.8" y2="18.3"/><line class="st0" x1="6.8" y1="21.5" x2="3.9" y2="23.4"/><line class="st0" x1="8.3" y1="26.7" x2="7.9" y2="27.4"/><line class="st0" x1="13.6" y1="26" x2="13" y2="29.4"/><line class="st0" x1="18.3" y1="28.7" x2="18.5" y2="29.4"/><line class="st0" x1="21.7" y1="24.4" x2="23.6" y2="27.4"/><line class="st0" x1="26.9" y1="23" x2="27.6" y2="23.4"/><line class="st0" x1="26.2" y1="17.7" x2="29.6" y2="18.3"/><line class="st0" x1="28.9" y1="12.9" x2="29.6" y2="12.8"/><line class="st0" x1="24.6" y1="9.6" x2="27.6" y2="7.7"/><line class="st0" x1="23.2" y1="4.4" x2="23.6" y2="3.7"/><line class="st0" x1="17.9" y1="5" x2="18.5" y2="1.6"/><line class="st0" x1="13.1" y1="2.4" x2="13" y2="1.6"/><line class="st0" x1="9.8" y1="6.6" x2="7.9" y2="3.7"/></svg>