<svg xmlns="http://www.w3.org/2000/svg" viewBox="0 0 31.2 31.3"><style type="text/css"> .st0{fill:none;stroke:#000000;stroke-width:0.3;stroke-linecap:square;stroke-miterlimit:10;} .st1{fill:none;stroke:#000000;stroke-width:0.3;stroke-miterlimit:10;} </style><line class="st0" x1="5.5" y1="5.4" x2="5.5" y2="5.4"/><line class="st0" x1="5.5" y1="5.4" x2="5.5" y2="5.4"/><line class="st0" x1="7.7" y1="3.6" x2="7.7" y2="3.6"/><line class="st0" x1="7.7" y1="27.2" x2="7.7" y2="27.2"/><line class="st0" x1="5.5" y1="5.4" x2="5.5" y2="5.4"/><line class="st0" x1="5.5" y1="25.5" x2="5.5" y2="25.5"/><line class="st0" x1="5.5" y1="5.4" x2="5.5" y2="5.4"/><line class="st0" x1="3.7" y1="23.4" x2="3.7" y2="23.4"/><line class="st0" x1="10.1" y1="28.6" x2="10.1" y2="28.6"/><line class="st0" x1="11.4" y1="5.2" x2="15.3" y2="1.4"/><line class="st0" x1="11.4" y1="5.2" x2="11.4" y2="5.2"/><line class="st0" x1="11.4" y1="5.2" x2="15.6" y2="6.8"/><line class="st0" x1="11.4" y1="5.2" x2="11.4" y2="5.2"/><line class="st0" x1="9.5" y1="9.4" x2="11.4" y2="5.2"/><line class="st0" x1="11.4" y1="5.2" x2="5.8" y2="5.4"/><line class="st0" x1="5.5" y1="5.4" x2="5.5" y2="5.4"/><line class="st0" x1="5.4" y1="11.1" x2="9.5" y2="9.4"/><line class="st0" x1="5.4" y1="11.1" x2="5.4" y2="11.1"/><line class="st0" x1="11.4" y1="5.2" x2="10.1" y2="2.3"/><line class="st0" x1="5.4" y1="11.1" x2="5.5" y2="5.6"/><line class="st0" x1="2.5" y1="10" x2="5.5" y2="11.1"/><line class="st0" x1="5.5" y1="25.2" x2="5.4" y2="19.7"/><line class="st0" x1="5.4" y1="19.7" x2="2.5" y2="20.8"/><line class="st0" x1="5.4" y1="19.7" x2="5.4" y2="19.7"/><polyline class="st0" points="5.4 19.7 1.4 15.4 5.4 11.1 "/><line class="st0" x1="10.1" y1="28.6" x2="11.4" y2="25.7"/><line class="st0" x1="11.4" y1="25.7" x2="5.7" y2="25.5"/><line class="st0" x1="11.4" y1="25.7" x2="11.4" y2="25.7"/><line class="st0" x1="11.4" y1="25.7" x2="9.5" y2="21.5"/><line class="st0" x1="5.4" y1="19.7" x2="5.4" y2="19.7"/><line class="st0" x1="9.5" y1="21.5" x2="5.4" y2="19.7"/><line class="st0" x1="15.5" y1="29.6" x2="11.4" y2="25.7"/><line class="st0" x1="15.6" y1="24" x2="11.4" y2="25.7"/><line class="st0" x1="5.4" y1="19.7" x2="7" y2="15.5"/><line class="st0" x1="7" y1="15.5" x2="5.4" y2="11.1"/><line class="st0" x1="15.6" y1="6.8" x2="11.4" y2="5.2"/><line class="st0" x1="9.5" y1="9.4" x2="15.6" y2="6.8"/><line class="st0" x1="9.5" y1="9.4" x2="11.4" y2="5.2"/><line class="st0" x1="9.5" y1="21.5" x2="15.6" y2="24"/><line class="st0" x1="5.4" y1="11.1" x2="5.4" y2="11.1"/><line class="st0" x1="7" y1="15.5" x2="9.5" y2="9.4"/><polyline class="st0" points="7 15.5 5.4 11.1 9.5 9.4 "/><line class="st0" x1="9.5" y1="21.5" x2="7" y2="15.5"/><line class="st0" x1="9.5" y1="21.5" x2="5.4" y2="19.7"/><line class="st0" x1="7" y1="15.5" x2="5.4" y2="19.7"/><line class="st0" x1="15.6" y1="24" x2="11.4" y2="25.7"/><line class="st0" x1="9.5" y1="21.5" x2="11.4" y2="25.7"/><polygon class="st1" points="15.4 29.7 12.8 29.5 10 28.6 8.1 27.5 5.5 25.5 3.7 23.4 2.5 20.9 1.6 18.1 1.3 15.2 1.6 12.5 2.5 10 3.8 7.3 5.6 5.3 7.7 3.6 10.1 2.2 13 1.5 15.4 1.3 15.6 1.3 18 1.5 20.9 2.2 23.3 3.6 25.4 5.3 27.2 7.3 28.5 10 29.4 12.5 29.7 15.2 29.4 18.1 28.5 20.9 27.3 23.4 25.5 25.5 22.9 27.5 21 28.6 18.2 29.5 15.6 29.7 "/><line class="st0" x1="25.5" y1="5.4" x2="25.5" y2="5.4"/><line class="st0" x1="25.5" y1="5.4" x2="25.5" y2="5.4"/><line class="st0" x1="23.3" y1="3.6" x2="23.3" y2="3.6"/><line class="st0" x1="23.3" y1="27.2" x2="23.3" y2="27.2"/><line class="st0" x1="25.5" y1="5.4" x2="25.5" y2="5.4"/><line class="st0" x1="25.5" y1="25.5" x2="25.5" y2="25.5"/><line class="st0" x1="25.5" y1="5.4" x2="25.5" y2="5.4"/><line class="st0" x1="27.3" y1="23.4" x2="27.3" y2="23.4"/><line class="st0" x1="20.9" y1="28.6" x2="20.9" y2="28.6"/><line class="st0" x1="15.7" y1="1.4" x2="19.6" y2="5.2"/><line class="st0" x1="19.6" y1="5.2" x2="19.6" y2="5.2"/><line class="st0" x1="15.4" y1="6.8" x2="19.6" y2="5.2"/><line class="st0" x1="19.6" y1="5.2" x2="19.6" y2="5.2"/><line class="st0" x1="19.6" y1="5.2" x2="21.5" y2="9.4"/><line class="st0" x1="25.2" y1="5.4" x2="19.6" y2="5.2"/><line class="st0" x1="25.5" y1="5.4" x2="25.5" y2="5.4"/><line class="st0" x1="21.5" y1="9.4" x2="25.6" y2="11.1"/><line class="st0" x1="25.6" y1="11.1" x2="25.6" y2="11.1"/><line class="st0" x1="20.9" y1="2.3" x2="19.6" y2="5.2"/><line class="st0" x1="25.5" y1="5.6" x2="25.6" y2="11.1"/><line class="st0" x1="25.5" y1="11.1" x2="28.5" y2="10"/><line class="st0" x1="25.6" y1="19.7" x2="25.5" y2="25.2"/><line class="st0" x1="28.5" y1="20.8" x2="25.6" y2="19.7"/><line class="st0" x1="25.6" y1="19.7" x2="25.6" y2="19.7"/><polyline class="st0" points="25.6 11.1 29.6 15.4 25.6 19.7 "/><line class="st0" x1="19.6" y1="25.7" x2="20.9" y2="28.6"/><line class="st0" x1="25.3" y1="25.5" x2="19.6" y2="25.7"/><line class="st0" x1="19.6" y1="25.7" x2="19.6" y2="25.7"/><line class="st0" x1="21.5" y1="21.5" x2="19.6" y2="25.7"/><line class="st0" x1="25.6" y1="19.7" x2="25.6" y2="19.7"/><line class="st0" x1="25.6" y1="19.7" x2="21.5" y2="21.5"/><line class="st0" x1="19.6" y1="25.7" x2="15.5" y2="29.6"/><line class="st0" x1="19.6" y1="25.7" x2="15.4" y2="24"/><line class="st0" x1="24" y1="15.5" x2="25.6" y2="19.7"/><line class="st0" x1="25.6" y1="11.1" x2="24" y2="15.5"/><line class="st0" x1="19.6" y1="5.2" x2="15.4" y2="6.8"/><line class="st0" x1="15.4" y1="6.8" x2="21.5" y2="9.4"/><line class="st0" x1="19.6" y1="5.2" x2="21.5" y2="9.4"/><line class="st0" x1="15.4" y1="24" x2="21.5" y2="21.5"/><line class="st0" x1="25.6" y1="11.1" x2="25.6" y2="11.1"/><line class="st0" x1="21.5" y1="9.4" x2="24" y2="15.5"/><polyline class="st0" points="21.5 9.4 25.6 11.1 24 15.5 "/><line class="st0" x1="24" y1="15.5" x2="21.5" y2="21.5"/><line class="st0" x1="25.6" y1="19.7" x2="21.5" y2="21.5"/><line class="st0" x1="25.6" y1="19.7" x2="24" y2="15.5"/><line class="st0" x1="19.6" y1="25.7" x2="15.4" y2="24"/><line class="st0" x1="19.6" y1="25.7" x2="21.5" y2="21.5"/></svg>