<svg xmlns="http://www.w3.org/2000/svg" viewBox="0 0 31 30.6"><style type="text/css"> .st0{fill:none;stroke:#000000;stroke-width:0.3;stroke-linecap:round;stroke-linejoin:round;} </style><line class="st0" x1="24.1" y1="0.9" x2="23" y2="7.6"/><line class="st0" x1="23" y1="7.6" x2="29.7" y2="6.5"/><polyline class="st0" points="1.5 23.6 7 29.2 24.1 29.2 "/><line class="st0" x1="29.7" y1="6.5" x2="24.1" y2="0.9"/><line class="st0" x1="29.7" y1="23.7" x2="29.7" y2="6.5"/><line class="st0" x1="24.1" y1="0.9" x2="7" y2="0.9"/><line class="st0" x1="23" y1="22.5" x2="24.1" y2="29.2"/><line class="st0" x1="7" y1="0.9" x2="8.1" y2="7.6"/><line class="st0" x1="8.1" y1="7.6" x2="1.4" y2="6.5"/><line class="st0" x1="29.7" y1="23.7" x2="24.1" y2="29.2"/><line class="st0" x1="1.4" y1="6.5" x2="7" y2="0.9"/><line class="st0" x1="23" y1="22.5" x2="29.7" y2="23.7"/><polyline class="st0" points="7 0.9 15.6 4.2 23 7.6 "/><polyline class="st0" points="24.1 0.9 15.6 4.2 8.1 7.6 "/><polyline class="st0" points="29.7 6.5 26.3 15.1 23 22.5 "/><polyline class="st0" points="29.7 23.7 26.3 15.1 23 7.6 "/><line class="st0" x1="1.5" y1="23.6" x2="1.4" y2="6.5"/><rect x="8.1" y="7.6" class="st0" width="14.9" height="14.9"/><polyline class="st0" points="1.4 6.5 4.8 15.1 8.1 22.5 "/><polyline class="st0" points="1.5 23.6 4.8 15.1 8.1 7.6 "/><line class="st0" x1="8.1" y1="22.5" x2="1.5" y2="23.6"/><line class="st0" x1="8.1" y1="22.5" x2="7" y2="29.2"/><polyline class="st0" points="24.1 29.2 15.6 25.8 8.1 22.5 "/><polyline class="st0" points="7 29.2 15.6 25.8 23 22.5 "/></svg>