<svg xmlns="http://www.w3.org/2000/svg" viewBox="0 0 28.4 29.1"><style type="text/css"> .st0{fill:none;stroke:#000000;stroke-width:0.3;stroke-linecap:square;stroke-miterlimit:10;} </style><polyline class="st0" points="7.3 9.8 7.5 9.6 10.9 6.2 "/><line class="st0" x1="7.3" y1="9.8" x2="7.3" y2="9.8"/><line class="st0" x1="8.3" y1="14.8" x2="7.3" y2="9.8"/><line class="st0" x1="11" y1="18.8" x2="8.3" y2="14.8"/><line class="st0" x1="14.2" y1="21" x2="11" y2="18.8"/><line class="st0" x1="14.2" y1="21" x2="14.2" y2="21"/><line class="st0" x1="12.7" y1="23.8" x2="14.2" y2="28.6"/><line class="st0" x1="10.9" y1="6.2" x2="14.1" y2="4.3"/><line class="st0" x1="7" y1="1.1" x2="6.7" y2="0.8"/><line class="st0" x1="14.1" y1="4.3" x2="7.1" y2="1.1"/><line class="st0" x1="12.8" y1="23.6" x2="14.2" y2="21"/><line class="st0" x1="5.2" y1="5.8" x2="4" y2="2.8"/><line class="st0" x1="5.2" y1="5.8" x2="7" y2="1.1"/><line class="st0" x1="5.2" y1="5.8" x2="5.2" y2="5.8"/><line class="st0" x1="11" y1="6.2" x2="5.2" y2="5.8"/><line class="st0" x1="3.9" y1="10.9" x2="3.9" y2="10.8"/><line class="st0" x1="8.2" y1="14.7" x2="4" y2="11"/><line class="st0" x1="3.9" y1="10.9" x2="2.6" y2="15.2"/><line class="st0" x1="7.1" y1="18.8" x2="2.6" y2="15.2"/><line class="st0" x1="7.1" y1="18.8" x2="7.1" y2="18.8"/><line class="st0" x1="8.3" y1="14.9" x2="7.1" y2="18.8"/><line class="st0" x1="1.6" y1="8" x2="3.9" y2="10.8"/><polyline class="st0" points="4 10.8 7.2 9.8 5.2 5.8 "/><line class="st0" x1="5.2" y1="5.8" x2="1.7" y2="7.7"/><line class="st0" x1="5.2" y1="5.8" x2="5.2" y2="5.8"/><polyline class="st0" points="12.7 23.6 11 18.9 10.9 18.8 7.1 18.8 "/><polyline class="st0" points="7.1 18.8 8.7 24 12.6 23.7 "/><line class="st0" x1="2.6" y1="15.2" x2="2.2" y2="15.2"/><polyline class="st0" points="3.7 18.1 6.1 21.2 8.5 23.9 8.8 24.2 11.2 26.5 13.9 28.7 14.1 28.8 14.3 28.8 14.6 28.7 17.2 26.5 19.6 24.2 19.9 23.9 22.4 21.2 24.8 18.1 "/><polyline class="st0" points="17.5 6.2 21 9.6 21.1 9.8 "/><line class="st0" x1="21.1" y1="9.8" x2="21.1" y2="9.8"/><line class="st0" x1="21.1" y1="9.8" x2="20.1" y2="14.8"/><line class="st0" x1="20.1" y1="14.8" x2="17.4" y2="18.8"/><line class="st0" x1="17.4" y1="18.8" x2="14.2" y2="21"/><line class="st0" x1="14.2" y1="21" x2="14.2" y2="21"/><line class="st0" x1="14.3" y1="28.6" x2="15.8" y2="23.8"/><line class="st0" x1="14.3" y1="4.3" x2="17.6" y2="6.2"/><polyline class="st0" points="24.8 18.1 25.6 16.7 26.2 15.4 26.4 15 26.9 13.4 27.1 11.6 27.1 9.7 26.9 8 26.9 7.7 26.4 6.1 25.6 4.4 24.6 2.8 24.4 2.5 23.8 1.8 22.9 1.2 21.9 0.7 21.6 0.6 20.8 0.4 19.5 0.3 18.3 0.5 17.2 0.9 16.2 1.4 14.8 2.6 14.2 2.7 13.6 2.6 12.2 1.4 11.2 0.9 10.1 0.5 8.9 0.3 7.7 0.4 6.8 0.6 6.5 0.7 5.6 1.2 4.7 1.8 4 2.5 3.8 2.8 2.8 4.4 2.1 6.1 1.5 7.7 1.5 8 1.3 9.7 1.3 11.6 1.6 13.4 2.1 15 2.2 15.4 2.8 16.7 3.7 18.1 "/><line class="st0" x1="21.8" y1="0.8" x2="21.4" y2="1.1"/><line class="st0" x1="21.4" y1="1.1" x2="14.3" y2="4.3"/><line class="st0" x1="14.2" y1="21" x2="15.8" y2="23.7"/><line class="st0" x1="24.4" y1="2.8" x2="23.2" y2="5.8"/><line class="st0" x1="21.5" y1="1.1" x2="23.2" y2="5.8"/><line class="st0" x1="23.2" y1="5.8" x2="23.2" y2="5.8"/><line class="st0" x1="23.2" y1="5.8" x2="17.5" y2="6.2"/><line class="st0" x1="24.5" y1="10.8" x2="24.5" y2="10.9"/><line class="st0" x1="24.4" y1="11" x2="20.2" y2="14.7"/><line class="st0" x1="25.9" y1="15.2" x2="24.5" y2="10.9"/><line class="st0" x1="25.9" y1="15.2" x2="21.4" y2="18.8"/><line class="st0" x1="21.4" y1="18.8" x2="21.4" y2="18.8"/><line class="st0" x1="21.4" y1="18.8" x2="20.1" y2="14.9"/><line class="st0" x1="24.5" y1="10.8" x2="26.9" y2="8"/><polyline class="st0" points="23.2 5.8 21.2 9.8 24.4 10.8 "/><line class="st0" x1="26.8" y1="7.7" x2="23.2" y2="5.8"/><line class="st0" x1="23.2" y1="5.8" x2="23.2" y2="5.8"/><polyline class="st0" points="21.4 18.8 17.5 18.8 17.4 18.9 15.8 23.6 "/><polyline class="st0" points="15.8 23.7 19.8 24 21.4 18.8 "/><line class="st0" x1="26.2" y1="15.2" x2="25.9" y2="15.2"/><line class="st0" x1="17.5" y1="6.2" x2="10.9" y2="6.2"/></svg>