<svg xmlns="http://www.w3.org/2000/svg" viewBox="0 0 30.6 30.7"><style type="text/css"> .st0{fill:none;stroke:#000000;stroke-width:0.3;stroke-linecap:round;stroke-linejoin:round;stroke-miterlimit:10;} </style><path class="st0" d="M18.2 22.2l4.1-4.1M8.4 18.1l4.1 4.1M12.5 8.4l-4.1 4.1M22.3 12.5l-4.1-4.1M12.5 8.4L5.3 5.3M8.4 12.5v5.7M5.3 5.3l3.1 7.2 -7.3 2.8M5.3 25.3l3.1-7.2 -7.3-2.8M12.5 22.2h5.7M5.3 25.3l7.2-3.1 2.9 7.3M25.4 25.3l-7.2-3.1 -2.9 7.3M22.3 18.1v-5.7M25.4 25.3l-3.1-7.2 7.2-2.7M25.4 5.3l-3.1 7.2 7.2 2.8M18.2 8.4h-5.7l2.9-7.3M25.4 5.3l-7.2 3.1 -2.9-7.3M5.2 5.2L7 3.8l1.9-1.1 2-0.8 2.2-0.6 2.2-0.2"/><line class="st0" x1="5.3" y1="5.3" x2="5.3" y2="5.3"/><path class="st0" d="M1.1 15.3l0.1-2.2 0.6-2.2 0.8-2.1 1.2-1.9 1.4-1.7M1.1 15.3L1.1 15.3M5.3 25.3l-1.4-1.7 -1.2-1.9 -0.8-2.1 -0.6-2.2 -0.2-2.1"/><line class="st0" x1="5.3" y1="25.3" x2="5.3" y2="25.3"/><polyline class="st0" points="15.3 29.5 13.1 29.3 10.9 28.8 8.9 27.9 7 26.8 5.3 25.3 "/><line class="st0" x1="15.3" y1="29.5" x2="15.3" y2="29.5"/><polyline class="st0" points="25.4 25.4 23.7 26.8 21.8 27.9 19.7 28.8 17.6 29.3 15.3 29.5 "/><line class="st0" x1="25.4" y1="25.3" x2="25.4" y2="25.3"/><path class="st0" d="M29.5 15.3l-0.1 2.2 -0.6 2.2L28 21.8l-1.2 1.9 -1.4 1.7M29.5 15.3L29.5 15.3M25.4 5.3L26.8 7 28 8.8l0.8 2.1 0.6 2.2 0.1 2.2"/><line class="st0" x1="25.4" y1="5.3" x2="25.4" y2="5.3"/><path class="st0" d="M15.3 1.1l2.2 0.1 2.2 0.6 2 0.8 1.9 1.1 1.7 1.5"/></svg>