<svg xmlns="http://www.w3.org/2000/svg" viewBox="0 0 28.1 34.8"><style type="text/css"> .st0{fill:none;stroke:#000000;stroke-width:0.3;} </style><polyline class="st0" points="13.5 8.1 11.6 8.1 9.4 10.4 9 11.4 9 22.5 9.4 23.5 11.6 25.8 13.5 25.8 "/><line class="st0" x1="4.7" y1="12.1" x2="9" y2="11.4"/><line class="st0" x1="6.8" y1="7.1" x2="9.4" y2="10.4"/><line class="st0" x1="10.7" y1="3.5" x2="11.6" y2="8.1"/><line class="st0" x1="11.6" y1="25.8" x2="10.6" y2="30.5"/><line class="st0" x1="9.4" y1="23.5" x2="6.8" y2="26.9"/><line class="st0" x1="9" y1="22.6" x2="4.6" y2="21.8"/><polyline class="st0" points="13.5 25.8 15.4 25.8 17.6 23.5 18 22.5 18 11.4 17.6 10.4 15.4 8.1 13.5 8.1 "/><path class="st0" d="M13.5 3c0.1 0 0.1 0 0.2 0 0.5 0 0.8 0 1.2 0.1 0.3 0.1 0.6 0.1 1.3 0.4 0.4 0.2 1.7 1 3.1 2.5 0.3 0.4 0.4 0.5 1 1.3 0.5 0.7 1 1.7 1.4 2.7 0.7 1.6 1.1 4.8 1.1 7.3 0 1.5-0.3 4-0.7 5.6s-1.6 4.2-3.7 6.2 -4.4 2.2-4.9 2.2c-0.4 0-2.8-0.2-4.9-2.2s-3.3-4.6-3.7-6.2 -0.7-4.1-0.7-5.6c0-2.5 0.4-5.7 1.1-7.3 0.4-1 0.9-2 1.4-2.7 0.6-0.8 0.7-0.9 1-1.3 1.4-1.5 2.7-2.3 3.1-2.5 0.6-0.3 1-0.3 1.3-0.4C12.5 3 12.8 3 13.3 3L13.5 3z"/><line class="st0" x1="18" y1="11.4" x2="22.3" y2="12.1"/><line class="st0" x1="17.6" y1="10.4" x2="20.2" y2="7.1"/><line class="st0" x1="15.4" y1="8.1" x2="16.3" y2="3.5"/><line class="st0" x1="16.4" y1="30.5" x2="15.4" y2="25.8"/><line class="st0" x1="20.2" y1="26.9" x2="17.6" y2="23.5"/><line class="st0" x1="22.4" y1="21.8" x2="18" y2="22.6"/></svg>