<svg xmlns="http://www.w3.org/2000/svg" viewBox="0 0 12.6 31"><style type="text/css"> .st0{fill:none;stroke:#000000;stroke-width:0.3;stroke-miterlimit:2.613;} </style><path class="st0" d="M6.2 4.4V3.6M6.2 4.4L5.1 4.9M2.5 29.6h3.7M6.2 27.1l-2.6 1.2h0.1 2.5M2.3 29.6h0.2M6.2 26.4L5.1 26M6.2 27.2v-0.8M5.1 26l-2.5 0.2M1.7 29.3l1.9-1L5.1 26M2.7 4.6l-1-3.1M1.4 2.2v26.3M2.6 26.2L2.7 4.6M1.7 29.3l0.9-3.2M5.1 26L4 17.7M4 17.7l-1.4 8.4M4 13L2.7 4.6M4 17.7V13M6.2 3.6L3.6 2.5M6.2 2.5H3.6M2.1 1.2L1.7 1.5M1.7 1.5l1.9 1M5.1 4.9L2.7 4.6M4 13l1.1-8.2M5.1 4.9L3.6 2.5M1.4 2.2V2l0.3-0.5 0 0 0.4-0.3 0 0h4.6M2.5 29.6H2.3 2.1l-0.3-0.2 -0.1-0.1L1.5 29l-0.1-0.4v-0.1"/><path class="st0" d="M7.3 4.9L6.2 4.4M5.2 29.6h4.7M5.6 28.3h3.1 0.1l-2.6-1.2M9.9 29.6h0.2M7.3 26l-1.1 0.4M9.8 26.2L7.3 26M7.3 26l1.5 2.3 1.9 1M10.7 1.5l-1 3.1M11 28.5V2.2M9.7 4.6l0.1 21.6M9.8 26.1l0.9 3.2M8.4 17.7L7.3 26M9.8 26.1l-1.4-8.4M9.7 4.6L8.4 13M8.4 13v4.7M8.8 2.5L6.2 3.6M8.8 2.5h-3M10.7 1.5l-0.4-0.3M8.8 2.5l1.9-1M9.7 4.6L7.3 4.9M7.3 4.8L8.4 13M8.8 2.5L7.3 4.9M6.2 1.2h4.1l0 0 0.4 0.3 0 0L11 2v0.2M11 28.5v0.1L10.9 29l-0.2 0.3 -0.1 0.1 -0.3 0.2h-0.2H9.9"/></svg>