<svg xmlns="http://www.w3.org/2000/svg" viewBox="0 0 22.8 31.7"><style type="text/css">  
	.st0{fill:none;stroke:#000000;stroke-width:0.3;stroke-linecap:round;stroke-linejoin:round;}
</style><polyline class="st0" points="6.7 29.8 16.1 29.8 21.1 25 21.1 6 16.1 1.3 6.7 1.3 "/><polyline class="st0" points="6.7 29.8 1.7 25 1.7 6 6.7 1.3 "/><polyline class="st0" points="6.7 29.7 8.5 24.9 6.5 22.9 1.7 25 "/><polyline class="st0" points="21.1 25 16.4 22.9 14.3 24.9 "/><polyline class="st0" points="16.1 1.4 14.3 6.3 16.4 8.2 "/><polyline class="st0" points="1.7 6.1 6.5 8.2 8.5 6.3 "/><polyline class="st0" points="8.5 24.9 14.3 24.9 16.1 29.8 "/><polyline class="st0" points="16.4 22.9 16.4 8.2 21.1 6.1 "/><polyline class="st0" points="14.3 6.3 8.5 6.3 6.7 1.4 "/><line class="st0" x1="6.5" y1="8.2" x2="6.5" y2="22.9"/><polygon class="st0" points="18 23.7 18 7.5 15 4.7 7.9 4.7 4.9 7.5 4.9 23.6 7.9 26.5 14.9 26.5 "/></svg>