<svg xmlns="http://www.w3.org/2000/svg" viewBox="0 0 188.19 150.22"><title>Gift_card</title><g id="Ebene_2" data-name="Ebene 2"><g id="Ebene_2-2" data-name="Ebene 2"><path d="M108.48,69s0-.1,0-.15a1.58,1.58,0,0,1,.38-1,1.48,1.48,0,0,1-.41-.12.71.71,0,0,1,0,.14,1.59,1.59,0,0,1-.33,1A1.44,1.44,0,0,1,108.48,69Z"/><path d="M108.75,62.24a.61.61,0,0,1,0-.14,1.58,1.58,0,0,1,.25-.86,2.3,2.3,0,0,1-.28-.06s0,.08,0,.12a1.81,1.81,0,0,1-.23.86A1.53,1.53,0,0,1,108.75,62.24Z"/><path d="M107.37,75.68a2.11,2.11,0,0,1,.43.2.66.66,0,0,1,0-.14,1.55,1.55,0,0,1,.5-1.13,1.68,1.68,0,0,1-.49-.17s0,.09,0,.13A1.61,1.61,0,0,1,107.37,75.68Z"/><path d="M107.49,66.39s0-.07,0-.11a1.65,1.65,0,0,1,.28-.9,1.17,1.17,0,0,1-.25-.07.38.38,0,0,1,0,.1,1.68,1.68,0,0,1-.25.89Z"/><path d="M109.41,71.75c0-.06,0-.14,0-.2a1.48,1.48,0,0,1,.49-1.12,1.54,1.54,0,0,1-.59-.17.55.55,0,0,1,0,.18,1.59,1.59,0,0,1-.43,1.09A1.51,1.51,0,0,1,109.41,71.75Z"/><path d="M110.86,67.32a1.51,1.51,0,0,1,.47-1.1,1.78,1.78,0,0,1-.65-.16,1.53,1.53,0,0,1-.38,1.28,1.64,1.64,0,0,1,.58.23A2.11,2.11,0,0,1,110.86,67.32Z"/><path d="M109.85,64.86a1.09,1.09,0,0,1,0-.19,1.59,1.59,0,0,1,.34-1,1.47,1.47,0,0,1-.46-.11,1,1,0,0,1,0,.18,1.62,1.62,0,0,1-.31,1A1.81,1.81,0,0,1,109.85,64.86Z"/><path d="M111.07,60.68a1.94,1.94,0,0,1,0-.24,1.52,1.52,0,0,1,.32-.94,1.59,1.59,0,0,1-.49-.11,1.5,1.5,0,0,1,0,.22,1.58,1.58,0,0,1-.28.91A1.42,1.42,0,0,1,111.07,60.68Z"/><path d="M104.42,82.71v.05a1.7,1.7,0,0,1-.08.51,1.48,1.48,0,0,1,.34-.44A1,1,0,0,1,104.42,82.71Z"/><path d="M107,73.06a1.61,1.61,0,0,1,.39-1,1.42,1.42,0,0,1-.33-.11V72a1.66,1.66,0,0,1-.35,1,1.51,1.51,0,0,1,.29.13Z"/><path d="M103.45,97.27a1.5,1.5,0,0,1-.81,1.33,1.41,1.41,0,0,1,.56.49,1.48,1.48,0,0,1,0-.22,1.42,1.42,0,0,1,1-1.33,1.48,1.48,0,0,1-.7-.42S103.45,97.22,103.45,97.27Z"/><path d="M104.68,86.7a1.49,1.49,0,0,1,.62-1.22,1.4,1.4,0,0,1-.41-.19v.08a1.63,1.63,0,0,1-.55,1.22,1.68,1.68,0,0,1,.34.2Z"/><path d="M106.09,70.44a1.62,1.62,0,0,1,.3-.94l-.18,0v0a1.69,1.69,0,0,1-.27.93l.15.07Z"/><path d="M105.34,77.2a1.55,1.55,0,0,1,.42-1.06,1.06,1.06,0,0,1-.25-.09v.06a1.65,1.65,0,0,1-.37,1.06l.2.09Z"/><path d="M106.05,80s0-.06,0-.1a1.55,1.55,0,0,1,.52-1.14,1.44,1.44,0,0,1-.38-.15v.09a1.61,1.61,0,0,1-.46,1.13A1.71,1.71,0,0,1,106.05,80Z"/><path d="M107.7,86.7a1.51,1.51,0,0,1-.78,1.32,1.44,1.44,0,0,1,.78.48,2.58,2.58,0,0,1,0-.29,1.44,1.44,0,0,1,1-1.36,1.42,1.42,0,0,1-1-.39C107.69,86.54,107.7,86.62,107.7,86.7Z"/><path d="M105.82,93.42a1.51,1.51,0,0,1-.85,1.35,1.46,1.46,0,0,1,.76.58,1.12,1.12,0,0,1,0-.32,1.41,1.41,0,0,1,1.11-1.37,1.45,1.45,0,0,1-1-.48A1,1,0,0,1,105.82,93.42Z"/><path d="M107.27,84a1.54,1.54,0,0,1-.65,1.26,1.7,1.7,0,0,1,.61.36,1.36,1.36,0,0,1,0-.2,1.45,1.45,0,0,1,.79-1.3,1.41,1.41,0,0,1-.73-.3Z"/><path d="M108.54,78.68c0-.06,0-.14,0-.2a1.47,1.47,0,0,1,.64-1.22,1.58,1.58,0,0,1-.68-.24,1.09,1.09,0,0,1,0,.18,1.57,1.57,0,0,1-.54,1.19A1.33,1.33,0,0,1,108.54,78.68Z"/><path d="M104.16,84a1.91,1.91,0,0,1,.07-.47,1.44,1.44,0,0,1-.28.4l.21.12Z"/><path d="M106.68,82.76a.71.71,0,0,1,0-.15,1.48,1.48,0,0,1,.63-1.21,1.76,1.76,0,0,1-.55-.22.53.53,0,0,1,0,.13,1.57,1.57,0,0,1-.55,1.2A1.42,1.42,0,0,1,106.68,82.76Z"/><path d="M110.27,74.54a1.1,1.1,0,0,1,0-.26,1.51,1.51,0,0,1,.64-1.22,1.43,1.43,0,0,1-.79-.23,1.64,1.64,0,0,1,0,.23,1.58,1.58,0,0,1-.54,1.18A1.54,1.54,0,0,1,110.27,74.54Z"/><path d="M109.11,79.65c0,.08,0,.15,0,.23a1.49,1.49,0,0,1-.67,1.26,1.48,1.48,0,0,1,.75.4,2.45,2.45,0,0,1,0-.27A1.45,1.45,0,0,1,110,80h0A1.46,1.46,0,0,1,109.11,79.65Z"/><path d="M112.91,64.34a1.86,1.86,0,0,1,0,.33,1.6,1.6,0,0,1-.51,1.15,1.41,1.41,0,0,1,.85.32,2.34,2.34,0,0,1,0-.39,1.46,1.46,0,0,1,.65-1.21l-.21,0A1.45,1.45,0,0,1,112.91,64.34Z"/><path d="M113.67,61.56h0a1.51,1.51,0,0,1,.91.31,1.55,1.55,0,0,1-.07-.43,1.46,1.46,0,0,1,.68-1.22,1.34,1.34,0,0,1-.35,0,1.49,1.49,0,0,1-.76-.21,1.67,1.67,0,0,1,.05.39A1.56,1.56,0,0,1,113.67,61.56Z"/><path d="M110.82,75.45a1.36,1.36,0,0,1,0,.29,1.52,1.52,0,0,1-.67,1.27,1.48,1.48,0,0,1,.88.41,1.27,1.27,0,0,1,0-.34,1.44,1.44,0,0,1,.95-1.35.9.9,0,0,1-.24,0A1.48,1.48,0,0,1,110.82,75.45Z"/><path d="M112.22,63.36a1.45,1.45,0,0,1,0-.3,1.51,1.51,0,0,1,.46-1.08h0a1.55,1.55,0,0,1-.68-.17,1.32,1.32,0,0,1,0,.28,1.62,1.62,0,0,1-.37,1A1.63,1.63,0,0,1,112.22,63.36Z"/><path d="M104.63,89.3a1.13,1.13,0,0,1,.47.29v-.14a1.47,1.47,0,0,1,.74-1.28,1.52,1.52,0,0,1-.56-.26V88A1.56,1.56,0,0,1,104.63,89.3Z"/><path d="M105.44,92.23a1.45,1.45,0,0,1,.89-1.33,1.4,1.4,0,0,1-.74-.36v.17a1.52,1.52,0,0,1-.75,1.31,1.4,1.4,0,0,1,.61.42A1.48,1.48,0,0,1,105.44,92.23Z"/><path d="M111.85,70.36a1.65,1.65,0,0,1,0-.32,1.45,1.45,0,0,1,.66-1.22h-.1a1.56,1.56,0,0,1-.8-.23,1.32,1.32,0,0,1,0,.28,1.53,1.53,0,0,1-.51,1.16A1.48,1.48,0,0,1,111.85,70.36Z"/><path d="M115.76,57.58a1.57,1.57,0,0,1-.08-.49,1.44,1.44,0,0,1,.6-1.17,1.49,1.49,0,0,1-.36,0,1.53,1.53,0,0,1-.73-.19,1.42,1.42,0,0,1,0,.42,1.56,1.56,0,0,1-.43,1.08h0A1.4,1.4,0,0,1,115.76,57.58Z"/><path d="M113.41,59.11a1.27,1.27,0,0,1,0-.34,1.48,1.48,0,0,1,.42-1h-.08a1.49,1.49,0,0,1-.66-.15,1.66,1.66,0,0,1,0,.32,1.58,1.58,0,0,1-.34,1A1.55,1.55,0,0,1,113.41,59.11Z"/><path d="M97.57,108.57a1.42,1.42,0,0,1,.86-1.29,1.32,1.32,0,0,1-.41-.37s0,0,0,0a1.53,1.53,0,0,1-.79,1.33,1.37,1.37,0,0,1,.34.45A.76.76,0,0,1,97.57,108.57Z"/><polygon points="81.48 122.16 81.5 122.15 81.48 122.15 81.48 122.16"/><path d="M97.89,103.2a.86.86,0,0,1-.18.14.92.92,0,0,1,.14.14A2.36,2.36,0,0,1,97.89,103.2Z"/><path d="M97.75,106.07a1.57,1.57,0,0,1,.1-.54,1.07,1.07,0,0,1-.34.29,1.22,1.22,0,0,1,.24.27Z"/><path d="M84.28,121.14l-.12.08a1.29,1.29,0,0,1,.06.4,1.45,1.45,0,0,1-.16.65,1.41,1.41,0,0,1,.37-.27,1.35,1.35,0,0,1-.17-.64A1.8,1.8,0,0,1,84.28,121.14Z"/><path d="M103.34,94.62a1.56,1.56,0,0,1-.72,1.31,1.67,1.67,0,0,1,.45.34v-.12a1.43,1.43,0,0,1,.81-1.31,1.44,1.44,0,0,1-.54-.31Z"/><path d="M87.68,118.87l-.16.11a1.49,1.49,0,0,1,.12.57,1.46,1.46,0,0,1-.21.75,1,1,0,0,1,.45-.34,1.38,1.38,0,0,1-.24-.77A1.65,1.65,0,0,1,87.68,118.87Z"/><path d="M186.81,0H1.38A1.38,1.38,0,0,0,0,1.38V148.84a1.38,1.38,0,0,0,1.38,1.38H186.81a1.38,1.38,0,0,0,1.38-1.38V1.38A1.38,1.38,0,0,0,186.81,0ZM151.28,22.58a.23.23,0,1,1,0,.45.23.23,0,1,1,0-.45Zm-.49,16.28a.23.23,0,0,1,.23.23.23.23,0,1,1-.45,0A.23.23,0,0,1,150.79,38.86Zm-.55,5.47a.24.24,0,0,1,.24.24.24.24,0,0,1-.24.25.25.25,0,0,1,0-.49Zm-.71-19.86a.32.32,0,0,1,.32.31.33.33,0,0,1-.32.32.32.32,0,0,1-.31-.32A.31.31,0,0,1,149.53,24.47ZM149.77,50a.27.27,0,1,1-.27-.27A.27.27,0,0,1,149.77,50Zm-.37-20.22a.32.32,0,0,1,.31.33.31.31,0,0,1-.31.31.32.32,0,0,1-.33-.31A.33.33,0,0,1,149.4,29.81Zm-.27,5.4a.34.34,0,0,1,.34.34.34.34,0,0,1-.67,0A.34.34,0,0,1,149.13,35.21Zm-.73,11.12a.35.35,0,1,1-.69,0,.35.35,0,1,1,.69,0Zm.16,8.77a.34.34,0,0,1,.35.34.35.35,0,0,1-.35.35.35.35,0,0,1-.35-.35A.35.35,0,0,1,148.56,55.1ZM147,69.6a.37.37,0,1,1-.38.37A.37.37,0,0,1,147,69.6Zm-.21-17.91a.41.41,0,0,1,.4-.41.41.41,0,0,1,0,.81A.41.41,0,0,1,146.83,51.69Zm.21,9.1a.38.38,0,1,1,.38.39A.38.38,0,0,1,147,60.79Zm.59-34.35a.41.41,0,1,1-.41.4A.41.41,0,0,1,147.63,26.44Zm-.22,5.27a.41.41,0,0,1,0,.82.41.41,0,0,1,0-.82ZM147.07,37a.43.43,0,1,1-.43.43A.42.42,0,0,1,147.07,37Zm-.53,5.3a.44.44,0,1,1,0,.87.44.44,0,1,1,0-.87ZM134.39,79.73a.72.72,0,0,1,.72-.72.72.72,0,0,1,0,1.44A.72.72,0,0,1,134.39,79.73Zm.25,15.46a.61.61,0,0,1-.61.62.62.62,0,0,1-.61-.62.61.61,0,0,1,.61-.6A.6.6,0,0,1,134.64,95.19Zm-14.06,5a1,1,0,1,1,1-1A1,1,0,0,1,120.58,100.19Zm.92,2.23a.94.94,0,0,1-.94.93.93.93,0,0,1,0-1.86A.94.94,0,0,1,121.5,102.42Zm-21.37,16.43a1.13,1.13,0,1,1,0-2.25,1.13,1.13,0,0,1,0,2.25Zm.48,1.19a1,1,0,1,1-2.07,0,1,1,0,0,1,2.07,0Zm0-3.53a1.19,1.19,0,1,1,1.19-1.19A1.18,1.18,0,0,1,100.61,116.51Zm1.76,2.29a1,1,0,1,1-1,1A1,1,0,0,1,102.37,118.8Zm.54-.4a1.07,1.07,0,1,1,0-2.13,1.07,1.07,0,0,1,0,2.13Zm.47-2.42a1.14,1.14,0,1,1,1.14-1.14A1.14,1.14,0,0,1,103.38,116Zm40.21-65.71a.54.54,0,0,1-.54-.53.54.54,0,1,1,1.08,0A.54.54,0,0,1,143.59,50.27Zm.8,8.25a.52.52,0,0,1-.52.52.52.52,0,1,1,.52-.52ZM143.2,54.9a.57.57,0,1,1-.56-.56A.56.56,0,0,1,143.2,54.9ZM112.53,100a1.22,1.22,0,1,1,1.22-1.21A1.21,1.21,0,0,1,112.53,100Zm1.18,1.75a1.17,1.17,0,1,1-1.17-1.17A1.18,1.18,0,0,1,113.71,101.73Zm-2.52-5.93a1.25,1.25,0,1,1,1.25,1.25A1.26,1.26,0,0,1,111.19,95.8Zm2.43-4A1.24,1.24,0,1,1,114.86,93,1.23,1.23,0,0,1,113.62,91.76ZM136,54.63a.77.77,0,1,1,1.54,0,.77.77,0,0,1-1.54,0Zm.43,4.92a.8.8,0,1,1-.8-.8A.79.79,0,0,1,136.4,59.55Zm-1-7.37a.83.83,0,0,1,0-1.66.83.83,0,1,1,0,1.66Zm-.16,4a.85.85,0,1,1-.85-.85A.85.85,0,0,1,135.28,56.22Zm-1.16,4.83a.88.88,0,1,1-1.75,0,.88.88,0,0,1,1.75,0Zm-.94-7.15a.91.91,0,1,1,.9-.9A.9.9,0,0,1,133.18,53.9ZM133,57.79a.93.93,0,1,1-.92-.92A.93.93,0,0,1,133,57.79Zm-1.21,4.76a1,1,0,1,1-.95-.95A1,1,0,0,1,131.82,62.55Zm-.93-6.94a1,1,0,1,1,1-1A1,1,0,0,1,130.89,55.61Zm-.12,3.74a1,1,0,1,1-1-1A1,1,0,0,1,130.77,59.35ZM117.45,80.28a1.21,1.21,0,0,1,1.22-1.22,1.23,1.23,0,1,1-1.22,1.22Zm.48,4.28a1.25,1.25,0,1,1-1.25-1.25A1.24,1.24,0,0,1,117.93,84.56Zm1.37-8.64a1.21,1.21,0,1,1,1.2,1.19A1.21,1.21,0,0,1,119.3,75.92Zm1.7-4.44a1.19,1.19,0,0,1,2.37,0,1.19,1.19,0,1,1-2.37,0Zm2.93-9.05a1.15,1.15,0,1,1,1.15,1.15A1.15,1.15,0,0,1,123.93,62.43Zm.94,4.55a1.16,1.16,0,1,1-1.16-1.16A1.15,1.15,0,0,1,124.87,67Zm.3-9.13A1.13,1.13,0,1,1,126.29,59,1.13,1.13,0,0,1,125.17,57.85Zm0,1.6A1.2,1.2,0,1,1,124,58.26,1.19,1.19,0,0,1,125.18,59.45ZM123.93,64a1.21,1.21,0,1,1-1.2-1.21A1.21,1.21,0,0,1,123.93,64Zm-1.38,4.48a1.23,1.23,0,1,1-1.24-1.23A1.23,1.23,0,0,1,122.55,68.45Zm.42,5a1.14,1.14,0,1,1-1.13,1.14A1.14,1.14,0,0,1,123,73.44Zm.53-3.36a1.12,1.12,0,1,1,1.11,1.11A1.12,1.12,0,0,1,123.5,70.08Zm1.5-4.57a1.1,1.1,0,1,1,1.1,1.1A1.09,1.09,0,0,1,125,65.51Zm1.35-4.61A1.08,1.08,0,1,1,127.42,62,1.07,1.07,0,0,1,126.35,60.9ZM128.48,63a1,1,0,0,1,1,1,1,1,0,0,1-1,1,1,1,0,0,1-1-1A1,1,0,0,1,128.48,63Zm.12-5.7a1.06,1.06,0,1,1,0-2.12,1.05,1.05,0,0,1,1.06,1.05A1.06,1.06,0,0,1,128.6,57.31Zm-1.24-3a1.11,1.11,0,1,1,1.12-1.12A1.12,1.12,0,0,1,127.36,54.35Zm-1.08.55a1.18,1.18,0,1,1-1.18-1.18A1.18,1.18,0,0,1,126.28,54.9Zm-2.2,1.65a1.25,1.25,0,1,1-1.25-1.25A1.24,1.24,0,0,1,124.08,56.55ZM122.94,61a1.27,1.27,0,1,1-1.27-1.26A1.27,1.27,0,0,1,122.94,61Zm-1.3,4.46a1.28,1.28,0,1,1-1.27-1.28A1.27,1.27,0,0,1,121.64,65.49Zm-1.43,4.42a1.3,1.3,0,1,1-1.29-1.29A1.29,1.29,0,0,1,120.21,69.91Zm-.46,1.72a1.25,1.25,0,1,1-1.25,1.25A1.25,1.25,0,0,1,119.75,71.63Zm-.44,5.62A1.28,1.28,0,1,1,118,76,1.28,1.28,0,0,1,119.31,77.25Zm-1.85,4.3a1.3,1.3,0,1,1-1.29-1.29A1.29,1.29,0,0,1,117.46,81.55Zm-2,4.22a1.31,1.31,0,1,1-1.3-1.31A1.3,1.3,0,0,1,115.45,85.77Zm-.9,1.71a1.28,1.28,0,1,1-1.28,1.27A1.27,1.27,0,0,1,114.55,87.48Zm.52,6.12a1.19,1.19,0,1,1-1.2,1.19A1.2,1.2,0,0,1,115.07,93.6Zm.83-6a1.21,1.21,0,1,1,1.21,1.2A1.21,1.21,0,0,1,115.9,87.62ZM118,83.36a1.18,1.18,0,1,1,1.18,1.18A1.18,1.18,0,0,1,118,83.36ZM120,79a1.15,1.15,0,0,1,1.16-1.16,1.16,1.16,0,0,1,0,2.32A1.15,1.15,0,0,1,120,79Zm1.74,2a1.12,1.12,0,1,1-1.12,1.11A1.11,1.11,0,0,1,121.76,81.05Zm.82-3.31a1.1,1.1,0,1,1,1.1,1.1A1.09,1.09,0,0,1,122.58,77.74Zm1.71,2.17a1,1,0,1,1,0,2.1,1,1,0,1,1,0-2.1Zm.08-6.67a1.07,1.07,0,1,1,1.07,1.08A1.07,1.07,0,0,1,124.37,73.24ZM126,68.67a1,1,0,1,1,1.05,1A1,1,0,0,1,126,68.67Zm1.92,2.23a1,1,0,1,1-1,1A1,1,0,0,1,127.91,70.9Zm.58-3.64a1,1,0,1,1,1.95,0,1,1,0,0,1-1.95,0Zm1.88,2.37a.93.93,0,1,1-.93.93A.93.93,0,0,1,130.37,69.63Zm.62-3.8a.9.9,0,1,1,.9.91A.89.89,0,0,1,131,65.83Zm1.84,2.52a.85.85,0,0,1,.85.85.85.85,0,1,1-1.7,0A.85.85,0,0,1,132.83,68.35Zm.65-3.94a.82.82,0,1,1,.83.82A.81.81,0,0,1,133.48,64.41Zm1.81,2.66a.77.77,0,0,1,.77.77.78.78,0,1,1-.77-.77ZM136,63a.74.74,0,0,1,.74-.74A.75.75,0,1,1,136,63Zm1.76,2.81a.7.7,0,0,1,.7.7.7.7,0,1,1-.7-.7Zm.23-7a.72.72,0,1,1,.72-.72A.72.72,0,0,1,138,58.74Zm1.15,2.1a.66.66,0,0,1,.67.66.67.67,0,1,1-1.34,0A.66.66,0,0,1,139.11,60.84Zm.55-4.36a.65.65,0,1,1,.64.63A.64.64,0,0,1,139.66,56.48Zm1.83,3a.59.59,0,0,1,.59.6.58.58,0,0,1-.59.58.59.59,0,0,1-.59-.58A.6.6,0,0,1,141.49,59.43Zm.67-12.56a.6.6,0,1,1,.61-.59A.6.6,0,0,1,142.16,46.87Zm-.22,4.52a.61.61,0,0,1-.61.62.62.62,0,0,1,0-1.24A.61.61,0,0,1,141.94,51.39Zm-1.26-7.8a.66.66,0,1,1,.66-.65A.66.66,0,0,1,140.68,43.59Zm-.06,4.4a.68.68,0,1,1-.67-.67A.67.67,0,0,1,140.62,48Zm-.88,5a.7.7,0,1,1-.7-.69A.7.7,0,0,1,139.74,53Zm-1.24-7.58a.74.74,0,1,1,0-1.47.74.74,0,1,1,0,1.47Zm0,4.24a.76.76,0,1,1-.75-.75A.76.76,0,0,1,138.46,49.68Zm-2.16-2.42a.82.82,0,0,1-.81-.81.83.83,0,0,1,.81-.82.82.82,0,0,1,.82.82A.81.81,0,0,1,136.3,47.26Zm-1.47-3.07a.88.88,0,0,1,0-1.76.88.88,0,1,1,0,1.76Zm-.73,3.1a.89.89,0,0,1,0,1.77.89.89,0,1,1,0-1.77ZM132.66,46a1,1,0,1,1,1-.95A.95.95,0,0,1,132.66,46Zm-.8,2.87a1,1,0,1,1-1,1A1,1,0,0,1,131.86,48.91Zm-1.38-1a1,1,0,1,1,1-1A1,1,0,0,1,130.48,47.87Zm-.86,2.65a1,1,0,1,1-1.05,1A1,1,0,0,1,129.62,50.52Zm-1.35-.83a1.11,1.11,0,1,1,1.11-1.1A1.11,1.11,0,0,1,128.27,49.69Zm-1,.62a1.18,1.18,0,0,1-2.35,0,1.18,1.18,0,1,1,2.35,0ZM125.07,52a1.24,1.24,0,1,1-1.24-1.24A1.24,1.24,0,0,1,125.07,52Zm-2.17,1.7a1.31,1.31,0,1,1-1.3-1.31A1.31,1.31,0,0,1,122.9,53.72Zm-2.17,1.69A1.37,1.37,0,1,1,119.36,54,1.37,1.37,0,0,1,120.73,55.41Zm-.17,1.47a1.31,1.31,0,0,1,0,2.62,1.31,1.31,0,1,1,0-2.62Zm.12,5.74a1.33,1.33,0,1,1-1.33-1.34A1.32,1.32,0,0,1,120.68,62.62ZM119.34,67A1.34,1.34,0,1,1,118,65.67,1.33,1.33,0,0,1,119.34,67Zm-1.46,4.36A1.36,1.36,0,1,1,116.52,70,1.36,1.36,0,0,1,117.88,71.37Zm-.56,1.6a1.31,1.31,0,0,1,1.31,1.31A1.32,1.32,0,1,1,117.32,73Zm-.41,5.61a1.34,1.34,0,1,1-1.35-1.33A1.34,1.34,0,0,1,116.91,78.58ZM115,82.83a1.36,1.36,0,1,1-1.35-1.35A1.35,1.35,0,0,1,115,82.83ZM113,87a1.37,1.37,0,1,1-1.36-1.37A1.36,1.36,0,0,1,113,87Zm-1,1.58a1.33,1.33,0,1,1-1.32,1.33A1.33,1.33,0,0,1,112,88.57Zm.27,3A1.29,1.29,0,1,1,111,92.84,1.3,1.3,0,0,1,112.25,91.55ZM109.89,101a1.27,1.27,0,1,1,1.27-1.27A1.27,1.27,0,0,1,109.89,101Zm1.2,1.62a1.23,1.23,0,1,1-1.22-1.23A1.22,1.22,0,0,1,111.09,102.59ZM111,93.93a1.35,1.35,0,1,1-1.35-1.35A1.34,1.34,0,0,1,111,93.93Zm-1.19,1.58a1.3,1.3,0,1,1-1.3,1.3A1.31,1.31,0,0,1,109.82,95.51Zm-1.25,2.33a1.36,1.36,0,1,1-1.36-1.36A1.35,1.35,0,0,1,108.57,97.84Zm-1.32,1.49a1.32,1.32,0,1,1-1.32,1.32A1.33,1.33,0,0,1,107.25,99.33Zm0,2.84a1.28,1.28,0,1,1-1.29,1.28A1.27,1.27,0,0,1,107.2,102.17Zm-.14,2.82a1.24,1.24,0,1,1-1.24,1.24A1.24,1.24,0,0,1,107.06,105Zm1,4a1.19,1.19,0,0,1-2.38,0,1.19,1.19,0,0,1,2.38,0Zm-3.49-3.33a1.33,1.33,0,1,1,1.33-1.33A1.34,1.34,0,0,1,104.53,105.65Zm-.17.07a1.29,1.29,0,1,1-1.29,1.29A1.29,1.29,0,0,1,104.36,105.72Zm-.25,2.7a1.25,1.25,0,1,1-1.24,1.25A1.24,1.24,0,0,1,104.11,108.42Zm-.33,2.67a1.2,1.2,0,1,1-1.19,1.19A1.19,1.19,0,0,1,103.78,111.09Zm1.38,7.49a.91.91,0,0,1,.9.91.9.9,0,1,1-.9-.91Zm.53-.63a1,1,0,0,1,0-2,1,1,0,0,1,0,2Zm.45-2.52a1.08,1.08,0,1,1,1.08-1.08A1.08,1.08,0,0,1,106.14,115.43Zm.38-2.59a1.15,1.15,0,1,1,1.14-1.15A1.14,1.14,0,0,1,106.52,112.84Zm2,2.8a.93.93,0,1,1-.94.93A.93.93,0,0,1,108.47,115.64Zm.44-.76a1,1,0,1,1,1-1A1,1,0,0,1,108.91,114.88Zm.36-2.7a1.08,1.08,0,1,1,1.08-1.07A1.07,1.07,0,0,1,109.27,112.18Zm.28-2.75a1.14,1.14,0,1,1,1.14-1.13A1.14,1.14,0,0,1,109.55,109.43Zm.2-2.79a1.18,1.18,0,1,1,1.19-1.18A1.19,1.19,0,0,1,109.75,106.64Zm1.93,5.79a.95.95,0,0,1,0,1.89.95.95,0,1,1,0-1.89Zm.34-.9a1,1,0,1,1,1-1A1,1,0,0,1,112,111.53Zm.26-2.84a1.07,1.07,0,1,1,1.07-1.08A1.08,1.08,0,0,1,112.28,108.69Zm.17-2.89a1.12,1.12,0,1,1,1.13-1.12A1.12,1.12,0,0,1,112.45,105.8Zm2,6.2a.88.88,0,1,1-.88.88A.88.88,0,0,1,114.44,112Zm.32-1.13a.95.95,0,1,1,.95-.94A.95.95,0,0,1,114.76,110.87Zm.25-2.93a1,1,0,1,1,1-1A1,1,0,0,1,115,107.94Zm.15-3a1.06,1.06,0,1,1,1-1A1.05,1.05,0,0,1,115.16,105Zm.06-3a1.11,1.11,0,1,1,1.1-1.11A1.11,1.11,0,0,1,115.22,102Zm0-3a1.15,1.15,0,1,1,1.14-1.15A1.15,1.15,0,0,1,115.19,99Zm1.09-8.3a1.17,1.17,0,1,1,1.17,1.18A1.17,1.17,0,0,1,116.28,90.69Zm1.4,2a1.13,1.13,0,1,1-1.12,1.13A1.14,1.14,0,0,1,117.68,92.67Zm.16,3.16a1.09,1.09,0,1,1-1.09,1.09A1.09,1.09,0,0,1,117.84,95.83Zm0,8.32a1,1,0,1,1,1-1A1,1,0,0,1,117.86,104.15Zm.81,2.11a.94.94,0,1,1-.94-.94A.95.95,0,0,1,118.67,106.26Zm-.77-5.18a1,1,0,1,1,1-1A1,1,0,0,1,117.9,101.08Zm.63-14.6a1.15,1.15,0,1,1,1.15,1.14A1.14,1.14,0,0,1,118.53,86.48Zm1.51,2a1.11,1.11,0,1,1-1.1,1.11A1.11,1.11,0,0,1,120,88.53Zm.28,3.22a1.07,1.07,0,1,1-1.07,1.07A1.07,1.07,0,0,1,120.32,91.75ZM120.5,95a1,1,0,1,1-1,1A1,1,0,0,1,120.5,95Zm.67-9.65a1.08,1.08,0,1,1,1.08,1.08A1.08,1.08,0,0,1,121.17,85.35Zm1.48,2.19a1,1,0,1,1-1,1A1,1,0,0,1,122.65,87.54Zm.3,3.3a1,1,0,1,1-1,1A1,1,0,0,1,123,90.84Zm.21,3.32a1,1,0,0,1,0,1.91,1,1,0,1,1,0-1.91Zm.65-9.93a1,1,0,1,1,1,1A1,1,0,0,1,123.81,84.23Zm1.34-7.75a1,1,0,1,1,1,1A1,1,0,0,1,125.15,76.48Zm1.69,2.3a1,1,0,1,1-1,1A1,1,0,0,1,126.84,78.78Zm-1,14.56a.89.89,0,1,1-.88.89A.89.89,0,0,1,125.81,93.34Zm-1.16-2.47a.94.94,0,1,1,.94.93A.93.93,0,0,1,124.65,90.87Zm1.8-7.77a.95.95,0,1,1,.94,1A.94.94,0,0,1,126.45,83.1Zm1.28-7.9a.94.94,0,0,1,1-1,1,1,0,1,1-1,1Zm1.64,2.45a.92.92,0,1,1-.91.91A.92.92,0,0,1,129.37,77.65Zm-.29,12.25a.86.86,0,1,1-.86-.86A.87.87,0,0,1,129.08,89.9Zm-.6,2.63a.81.81,0,1,1,0,1.62.81.81,0,0,1,0-1.62Zm.16,3.5a.76.76,0,1,1-.76.76A.76.76,0,0,1,128.64,96Zm.46-14a.87.87,0,1,1,.87.87A.88.88,0,0,1,129.1,82Zm1.2-8a.89.89,0,1,1,1.77,0,.89.89,0,0,1-1.77,0Zm1.61,2.59a.85.85,0,0,1,.84.84.84.84,0,1,1-.84-.84Zm-.57,18.78a.69.69,0,0,1,0,1.37.69.69,0,1,1,0-1.37Zm-.92-2.85a.74.74,0,1,1,.74.73A.74.74,0,0,1,130.42,92.46Zm1.33-11.6a.79.79,0,1,1,1.58,0,.79.79,0,1,1-1.58,0Zm1.13-8.21a.81.81,0,1,1,.81.81A.81.81,0,0,1,132.88,72.65Zm1.56,2.75a.76.76,0,1,1-.75.76A.76.76,0,0,1,134.44,75.4Zm1-4a.73.73,0,1,1,.72.73A.73.73,0,0,1,135.45,71.36ZM137,74.27a.68.68,0,1,1-.68.68A.68.68,0,0,1,137,74.27Zm.7,3.69a.64.64,0,1,1-.64.63A.64.64,0,0,1,137.68,78Zm.33-7.9a.65.65,0,1,1,.65.65A.65.65,0,0,1,138,70.06Zm1.5,3.06a.61.61,0,0,1,0,1.21.61.61,0,1,1,0-1.21Zm0-8a.62.62,0,0,1,.62-.62.62.62,0,0,1,0,1.24A.62.62,0,0,1,139.55,65.08Zm1.59,3.09a.57.57,0,0,1,.58.58.58.58,0,0,1-1.15,0A.58.58,0,0,1,141.14,68.17ZM142,72a.53.53,0,0,1,.53.53A.54.54,0,1,1,142,72Zm0-8.28a.55.55,0,0,1,.54-.55.55.55,0,0,1,.55.55.54.54,0,0,1-.55.53A.53.53,0,0,1,142.06,63.68Zm1.55,3.23a.51.51,0,0,1,.51.5.5.5,0,1,1-.51-.5Zm.93,3.87a.46.46,0,1,1-.46.46A.46.46,0,0,1,144.54,70.78Zm-.08-17.47a.49.49,0,0,1,1,0,.49.49,0,1,1-1,0Zm.09,8.94a.47.47,0,1,1,.47.46A.48.48,0,0,1,144.55,62.25Zm.82-14.2a.46.46,0,1,1,.92,0,.46.46,0,0,1-.92,0Zm.71,17.59a.42.42,0,0,1,.42.43.42.42,0,1,1-.84,0A.42.42,0,0,1,146.08,65.64Zm.14-8.21a.44.44,0,0,1-.44-.43.45.45,0,0,1,.44-.44.44.44,0,0,1,.44.44A.44.44,0,0,1,146.22,57.43Zm-.54-29a.49.49,0,1,1-.49.49A.49.49,0,0,1,145.68,28.38Zm-.29,5.19a.5.5,0,0,1,0,1,.5.5,0,1,1,0-1ZM145,38.8a.51.51,0,0,1,.51.51.51.51,0,0,1-1,0A.51.51,0,0,1,145,38.8Zm-.09,5.73a.52.52,0,1,1-.52-.52A.52.52,0,0,1,144.88,44.53ZM143.7,30.29a.57.57,0,0,1,.56.57.56.56,0,1,1-1.12,0A.57.57,0,0,1,143.7,30.29Zm-.37,5.11a.57.57,0,0,1,.57.57.56.56,0,0,1-.57.57.57.57,0,0,1-.58-.57A.58.58,0,0,1,143.33,35.4Zm-.49,5.16a.58.58,0,1,1,0,1.16.58.58,0,1,1,0-1.16Zm-1.15-8.4a.65.65,0,0,1,0,1.29.65.65,0,1,1,0-1.29Zm-.45,5a.65.65,0,0,1,.65.65.64.64,0,0,1-.65.64.63.63,0,0,1-.64-.64A.64.64,0,0,1,141.24,37.2ZM139.64,34a.72.72,0,1,1-.72.72A.71.71,0,0,1,139.64,34Zm-.52,5a.73.73,0,1,1-.72.73A.72.72,0,0,1,139.12,39Zm-1.55-3.14a.79.79,0,1,1-.8.79A.8.8,0,0,1,137.57,35.83ZM137,40.72a.8.8,0,0,1,0,1.6.8.8,0,1,1,0-1.6Zm-1.52-3.1a.87.87,0,1,1-.87.87A.87.87,0,0,1,135.47,37.62Zm-2.12,1.77a.95.95,0,1,1-.94,1A.94.94,0,0,1,133.35,39.39Zm-2.13,1.75a1,1,0,1,1-1,1A1,1,0,0,1,131.22,41.14Zm-2.15,1.72A1.1,1.1,0,1,1,128,44,1.1,1.1,0,0,1,129.07,42.86Zm-2.16,1.72a1.17,1.17,0,1,1-1.17,1.16A1.17,1.17,0,0,1,126.91,44.58Zm-2.18,1.71a1.23,1.23,0,1,1-1.24,1.23A1.23,1.23,0,0,1,124.73,46.29ZM122.55,48a1.3,1.3,0,1,1-1.31,1.3A1.3,1.3,0,0,1,122.55,48Zm-2.21,1.67A1.37,1.37,0,1,1,119,51,1.36,1.36,0,0,1,120.34,49.65ZM89.22,127.29a.87.87,0,1,1,.87-.87A.87.87,0,0,1,89.22,127.29Zm2.81-.07a.78.78,0,1,1,.78-.78A.77.77,0,0,1,92,127.22Zm.68-1.74a.87.87,0,1,1,.88-.87A.87.87,0,0,1,92.71,125.48Zm.66-1.79a1.06,1.06,0,0,1,0-2.11h0a1.16,1.16,0,0,1,.41-2.15,1.22,1.22,0,0,1-.49-1,1.24,1.24,0,0,1,.93-1.2,1.29,1.29,0,0,1,.42-2.22,1.35,1.35,0,0,1,.35-2.28,1.34,1.34,0,0,1-.33-.42v0a1.49,1.49,0,0,1-.8,1.31,1.43,1.43,0,0,1,.32.9,1.41,1.41,0,0,1-.85,1.29,1.37,1.37,0,0,1,.31.86,1.35,1.35,0,0,1-.9,1.27,1.23,1.23,0,0,1,.3.81,1.3,1.3,0,0,1-.95,1.24,1.22,1.22,0,0,1-.74,2,1.08,1.08,0,0,1,.3.75,1.12,1.12,0,0,1-1.11,1.12h-.1a.92.92,0,0,1,.4.77,1,1,0,1,1-1-1h0a1.11,1.11,0,0,1,.39-2,1.22,1.22,0,0,1,.49-2,1.32,1.32,0,0,1-.33-.87,1.27,1.27,0,0,1,.81-1.19,1.35,1.35,0,0,1-.34-.89,1.51,1.51,0,0,1,.08-.48,1.18,1.18,0,0,1-.28.2,1.45,1.45,0,0,1,.21.74,1.42,1.42,0,0,1-.82,1.29,1.27,1.27,0,0,1,.2.69,1.37,1.37,0,0,1-.87,1.27,1.18,1.18,0,0,1,.19.65,1.28,1.28,0,0,1-.92,1.22,1.14,1.14,0,0,1,.19.63,1.17,1.17,0,0,1-1,1.16,1,1,0,0,1,.22.63,1,1,0,0,1-1,1,.95.95,0,1,1-.78-.33,1,1,0,0,1-.29-.7,1,1,0,0,1,.82-1,1.19,1.19,0,0,1-.29-.78,1.16,1.16,0,0,1,.77-1.1,1.29,1.29,0,0,1-.24-.75,1.32,1.32,0,0,1,.18-.65,1.21,1.21,0,0,1-.47.37,1.36,1.36,0,0,1,.11.53,1.33,1.33,0,0,1-.85,1.25,1.45,1.45,0,0,1,.11.51,1.24,1.24,0,0,1-.92,1.19,1.19,1.19,0,0,1,.12.5,1.11,1.11,0,0,1-.89,1.08,1,1,0,1,1-1.15-.51,1,1,0,0,1-.17-.57,1.1,1.1,0,0,1,.73-1,1.17,1.17,0,0,1-.2-.66,1.12,1.12,0,0,1,.14-.55,1.57,1.57,0,0,1-.46.34,1.06,1.06,0,0,1,.07.37,1.31,1.31,0,0,1-.87,1.22,1.51,1.51,0,0,1,.06.37,1.17,1.17,0,0,1-.83,1.12,1.1,1.1,0,1,1-2.14.37,1.09,1.09,0,0,1,.72-1,1.14,1.14,0,0,1-.09-.46,1.18,1.18,0,0,1,.66-1.05,1.23,1.23,0,0,1-.13-.54c0-.07,0-.13,0-.19a.5.5,0,0,1-.14.1,1.6,1.6,0,0,1,0,.23,1.4,1.4,0,0,1-.85,1.28,1.6,1.6,0,0,1,0,.23,1.25,1.25,0,0,1-.8,1.16,1.06,1.06,0,0,1,0,.25,1.17,1.17,0,0,1-2.34,0,1.17,1.17,0,0,1,.68-1.06,1.34,1.34,0,0,1,0-.35,1.23,1.23,0,0,1,0-.19l-.26.17V125a1.31,1.31,0,0,1-.67,1.14.62.62,0,0,1,0,.19,1.24,1.24,0,0,1-2.41.43,1.31,1.31,0,0,1-1.23.89H43.48c-2.35,0-6.86-6.6-6.86-14.93,0-24.07,39.93-46.62,39.93-66.95a6.15,6.15,0,0,0-6.14-6.14c-4.17,0-6.12,3.82-7.5,7-2,4.57-4,9.7-10.8,12.27a4.35,4.35,0,0,1-1.82-3.53c0-4.35,3.43-7.15,3.43-7.9a.42.42,0,0,0-.43-.43.4.4,0,0,0-.36.2c-.43.62-4.07,6.23-8.32,6.23-1.26,0-2-1.14-2-2.9,0-2.53,1.52-6.35,5-10A31.86,31.86,0,0,1,70.41,31,14.78,14.78,0,0,1,85.19,45.76c0,19-31,42.79-31,55.18a6.14,6.14,0,0,0,6.18,6.17c9,0,7.32-16.34,34.41-38.24,6.49-5.25,9-7.27,9-7.27a1.73,1.73,0,0,1,1.07-.36,1.65,1.65,0,0,1,.54.09v0a1.7,1.7,0,0,1,1.7-1.7,1.58,1.58,0,0,1,.58.11v-.1A1.66,1.66,0,0,1,109.24,58a1.71,1.71,0,0,1,.65.12.88.88,0,0,1,0-.17,1.61,1.61,0,0,1,1.61-1.6,1.51,1.51,0,0,1,.7.17,1.41,1.41,0,0,1,0-.28,1.55,1.55,0,0,1,1.55-1.55,1.45,1.45,0,0,1,.78.22,1.74,1.74,0,0,1,0-.39A1.49,1.49,0,0,1,115.92,53a1.5,1.5,0,0,1,.89.29,1.52,1.52,0,0,1-.11-.53,1.43,1.43,0,1,1,1.43,1.43,1.48,1.48,0,0,1-.83-.26,1.49,1.49,0,0,1-.52,1.78,1.86,1.86,0,0,1,.33,0,1.44,1.44,0,1,1,0,2.87,1.41,1.41,0,0,1-.85-.29,1.55,1.55,0,0,1,.09.53,1.5,1.5,0,0,1-.71,1.27,1.29,1.29,0,0,1,.33,0,1.43,1.43,0,0,1,1.11.51,1.38,1.38,0,1,1,.14.2,1.43,1.43,0,0,1,.2.73A1.44,1.44,0,0,1,116,62.89a1.38,1.38,0,0,1-.86-.3,1.48,1.48,0,0,1-.61,1.73l.2,0a1.45,1.45,0,0,1,1.06.46,1.35,1.35,0,0,1-.12-.57A1.39,1.39,0,1,1,117,65.58a1.36,1.36,0,0,1-1-.44,1.56,1.56,0,0,1,.14.61,1.46,1.46,0,0,1-1.46,1.46,1.42,1.42,0,0,1-.88-.3,1.84,1.84,0,0,1,.06.41,1.47,1.47,0,0,1-.7,1.26h.1a1.48,1.48,0,0,1,1,.44,1.34,1.34,0,0,1-.1-.49,1.41,1.41,0,1,1,1.41,1.4,1.44,1.44,0,0,1-1-.41,1.45,1.45,0,0,1-1.36,2,1.5,1.5,0,0,1-.9-.3,1.34,1.34,0,0,1,.05.35,1.52,1.52,0,0,1-.67,1.26,1.48,1.48,0,0,1,1,.43,1.76,1.76,0,0,1-.06-.41,1.4,1.4,0,1,1,.42,1,1.27,1.27,0,0,1,.07.44,1.48,1.48,0,0,1-1,1.39.86.86,0,0,1,.23,0,1.42,1.42,0,0,1,1.2.65,1.42,1.42,0,0,1-.15-.62,1.41,1.41,0,1,1,.23.74,1.6,1.6,0,0,1,.15.66,1.44,1.44,0,0,1-1.43,1.43,1.38,1.38,0,0,1-1-.41,1.2,1.2,0,0,1,0,.38,1.49,1.49,0,0,1-.87,1.35,1.45,1.45,0,0,1,1.17.59,1.37,1.37,0,0,1-.09-.49,1.38,1.38,0,1,1,.27.82,1.55,1.55,0,0,1,.1.52,1.45,1.45,0,0,1-2.44,1,1.43,1.43,0,0,1,0,.29,1.5,1.5,0,0,1-.82,1.34,1.45,1.45,0,0,1,1,.53,2.2,2.2,0,0,1,0-.37,1.41,1.41,0,1,1,1.41,1.4,1.37,1.37,0,0,1-1.09-.52,1.84,1.84,0,0,1,0,.41,1.45,1.45,0,0,1-1,1.39A1.42,1.42,0,1,1,108,89.14a1.46,1.46,0,0,1,0,.31,1.49,1.49,0,0,1-.92,1.37,1.47,1.47,0,0,1,1,.71,1.27,1.27,0,0,1-.09-.47,1.39,1.39,0,1,1,1.38,1.38,1.4,1.4,0,0,1-1.2-.7,1.33,1.33,0,0,1,.09.49,1.46,1.46,0,0,1-1.15,1.41,1.39,1.39,0,1,1-1.24,2.16,1.29,1.29,0,0,1,0,.35,1.47,1.47,0,0,1-1,1.37,1.41,1.41,0,0,1-.1,2.74,1.38,1.38,0,1,1-.55,0,1.42,1.42,0,0,1-.89-.58,2,2,0,0,1,0,.24,1.47,1.47,0,0,1-.91,1.35,1.41,1.41,0,0,1,.83,1.29,1.43,1.43,0,0,1-1,1.36,1.38,1.38,0,0,1-.26,2.62,1.34,1.34,0,0,1-.37,2.58,1.29,1.29,0,0,1-.39,2.53h-.13a1.25,1.25,0,1,1-.22,0h.11a1.3,1.3,0,0,1-1.05-1.28,1.28,1.28,0,0,1,1.17-1.28,1.34,1.34,0,0,1-1-1.28,1.33,1.33,0,0,1,1.05-1.3,1.43,1.43,0,0,1-.77-.72,2.77,2.77,0,0,1,0,.3,1.45,1.45,0,0,1-.9,1.33,1.4,1.4,0,0,1,.63,1.17,1.38,1.38,0,0,1-1,1.33A1.32,1.32,0,0,1,100,111a1.35,1.35,0,0,1-1,1.32,1.28,1.28,0,0,1-.51,2.37,1.25,1.25,0,0,1-.58,2.33,1.18,1.18,0,1,1-.58-.13,1.27,1.27,0,0,1-.7-1.12,1.24,1.24,0,0,1,1.06-1.22,1.29,1.29,0,0,1,.31-2.39,1.34,1.34,0,0,1,.27-2.43,1.56,1.56,0,0,1-.53-.58,1,1,0,0,1,0,.17,1.45,1.45,0,0,1-.85,1.32,1.39,1.39,0,0,1,.47,1,1.43,1.43,0,0,1-.9,1.32,1.32,1.32,0,0,1,.45,1,1.34,1.34,0,0,1-1,1.29,1.29,1.29,0,0,1-.56,2.23,1.27,1.27,0,0,1,.42.93,1.24,1.24,0,0,1-1.09,1.22,1.16,1.16,0,0,1-.72,2.06h-.07a1.05,1.05,0,0,1-.55,2ZM38.59,71.1c0-1.91,4-5.69,5.6-14.59a1.28,1.28,0,0,1,1.17-1.11,1.07,1.07,0,0,1,.92.53c.41.79.29,1.61.82,2.18s1.21.37,2.09.88a2.9,2.9,0,0,1,1.13,1.26S41.45,72.37,39.87,72.37A1.47,1.47,0,0,1,38.59,71.1Zm59.29,49.22a1.11,1.11,0,1,1-1.1-1.1A1.1,1.1,0,0,1,97.88,120.32Zm-3,6.83a.69.69,0,1,1,.69-.69A.69.69,0,0,1,94.83,127.15Zm.69-1.82a.8.8,0,0,1,0-1.59.8.8,0,0,1,0,1.59Zm.65-1.89a1,1,0,1,1,1-1A1,1,0,0,1,96.17,123.44Zm1.47,3.63a.59.59,0,1,1,0-1.18.59.59,0,0,1,0,1.18Zm.69-1.91a.7.7,0,1,1,.7-.7A.7.7,0,0,1,98.33,125.16Zm.64-2a.91.91,0,1,1,.91-.91A.91.91,0,0,1,99,123.2Zm1.47,3.79a.49.49,0,0,1,0-1,.49.49,0,1,1,0,1Zm.69-2a.61.61,0,1,1,.61-.6A.6.6,0,0,1,101.13,125Zm.65-2a.84.84,0,1,1,.83-.84A.83.83,0,0,1,101.78,123Zm1.47,4a.4.4,0,1,1,.4-.4A.4.4,0,0,1,103.25,126.92Zm.69-2.11a.51.51,0,0,1,0-1,.51.51,0,1,1,0,1Zm.64-2.12a.76.76,0,1,1,.76-.75A.76.76,0,0,1,104.58,122.69Zm1.49,4.14a.3.3,0,0,1-.31-.29.31.31,0,1,1,.61,0A.3.3,0,0,1,106.07,126.83Zm.68-2.19a.41.41,0,1,1,.41-.41A.41.41,0,0,1,106.75,124.64Zm.63-2.22a.67.67,0,0,1,0-1.34.67.67,0,0,1,0,1.34ZM108,120a.82.82,0,0,1-.82-.82.83.83,0,1,1,.82.82Zm.92,6.78a.26.26,0,0,1-.25-.26.25.25,0,0,1,.25-.24.25.25,0,0,1,.26.24A.26.26,0,0,1,108.87,126.8Zm.69-2.26a.36.36,0,1,1,0-.72.36.36,0,0,1,0,.72Zm.62-2.39a.58.58,0,0,1-.58-.58.58.58,0,1,1,1.16,0A.58.58,0,0,1,110.18,122.15Zm.56-2.49a.75.75,0,0,1,0-1.5.75.75,0,1,1,0,1.5Zm.51-2.62a.87.87,0,1,1,0-1.73.87.87,0,0,1,0,1.73Zm1.11,7.41a.32.32,0,0,1-.31-.31.33.33,0,0,1,.31-.31.32.32,0,0,1,.31.31A.31.31,0,0,1,112.36,124.45Zm.62-2.57a.51.51,0,0,1-.5-.5.5.5,0,0,1,.5-.5.5.5,0,0,1,.5.5A.5.5,0,0,1,113,121.88Zm.56-2.6a.67.67,0,1,1,.67-.67A.66.66,0,0,1,113.54,119.28Zm.49-2.71a.79.79,0,1,1,0-1.58.79.79,0,1,1,0,1.58Zm1.14,7.76a.22.22,0,0,1-.22-.22.22.22,0,1,1,.44,0A.22.22,0,0,1,115.17,124.33Zm.61-2.73a.41.41,0,0,1-.41-.42.41.41,0,0,1,.82,0A.41.41,0,0,1,115.78,121.6Zm.55-2.7a.59.59,0,1,1,.59-.59A.59.59,0,0,1,116.33,118.9Zm.48-2.81a.71.71,0,1,1,.71-.71A.71.71,0,0,1,116.81,116.09Zm.39-2.9a.81.81,0,1,1,0-1.62.81.81,0,1,1,0,1.62Zm.31-3a.88.88,0,1,1,.88-.88A.88.88,0,0,1,117.51,110.22Zm1.07,11.09a.32.32,0,0,1-.32-.31.33.33,0,0,1,.32-.33.32.32,0,0,1,.32.33A.31.31,0,0,1,118.58,121.31Zm.54-2.78a.51.51,0,1,1,.51-.5A.51.51,0,0,1,119.12,118.53Zm.47-2.91A.64.64,0,0,1,119,115a.64.64,0,1,1,1.27,0A.63.63,0,0,1,119.59,115.62Zm.37-3a.73.73,0,0,1,0-1.46.73.73,0,1,1,0,1.46Zm.29-3a.81.81,0,0,1,0-1.62.81.81,0,1,1,0,1.62Zm.21-3.1a.88.88,0,1,1,.88-.87A.87.87,0,0,1,120.46,106.48Zm.92,14.55a.22.22,0,0,1,0-.44.22.22,0,1,1,0,.44Zm.54-2.86a.43.43,0,1,1,0-.85.43.43,0,0,1,0,.85Zm.44-3a.56.56,0,1,1,.56-.56A.56.56,0,0,1,122.36,115.17Zm.37-3.08a.66.66,0,1,1,.66-.65A.66.66,0,0,1,122.73,112.09ZM123,109a.74.74,0,1,1,.73-.74A.74.74,0,0,1,123,109Zm.18-3.19a.8.8,0,1,1,0-1.6.8.8,0,1,1,0,1.6Zm.09-3.21a.87.87,0,1,1,.86-.86A.87.87,0,0,1,123.28,102.55Zm0-3.24a.91.91,0,1,1,.91-.91A.92.92,0,0,1,123.27,99.31Zm2-12.75a1,1,0,1,1-1,1A1,1,0,0,1,125.25,86.56Zm-.54,31.25a.35.35,0,1,1,0-.69.35.35,0,0,1,0,.69Zm.44-3.09a.48.48,0,1,1,.48-.48A.48.48,0,0,1,125.15,114.72Zm.35-3.17a.58.58,0,0,1,0-1.16.58.58,0,0,1,0,1.16Zm.26-3.23a.66.66,0,1,1,0-1.32.66.66,0,1,1,0,1.32Zm.16-3.27a.73.73,0,0,1-.72-.73.73.73,0,0,1,1.45,0A.73.73,0,0,1,125.92,105.05Zm.07-3.3a.79.79,0,0,1,0-1.58.79.79,0,0,1,0,1.58Zm0-3.32a.84.84,0,0,1,0-1.68.84.84,0,1,1,0,1.68Zm1-11.94a.91.91,0,1,1,.9.9A.91.91,0,0,1,127,86.49Zm.55,30.93a.22.22,0,0,1-.22-.22.23.23,0,1,1,.22.22Zm.43-3.14a.41.41,0,0,1-.4-.4.4.4,0,0,1,.4-.39.39.39,0,0,1,.4.39A.4.4,0,0,1,127.93,114.28Zm.35-3.26a.5.5,0,0,1-.51-.5.51.51,0,0,1,.51-.5.5.5,0,0,1,.49.5A.49.49,0,0,1,128.28,111Zm.24-3.32a.58.58,0,1,1,0-1.16.58.58,0,1,1,0,1.16Zm.14-3.36a.65.65,0,1,1,.65-.65A.65.65,0,0,1,128.66,104.34Zm0-3.39a.71.71,0,1,1,.72-.7A.7.7,0,0,1,128.7,101Zm.93-15.51a.83.83,0,1,1,.83.83A.83.83,0,0,1,129.63,85.44Zm.45,3.5a.77.77,0,0,1,.78-.78.78.78,0,0,1,.79.78.8.8,0,0,1-.79.78A.78.78,0,0,1,130.08,88.94Zm.64,24.9a.31.31,0,1,1,.31-.31A.31.31,0,0,1,130.72,113.84Zm.33-3.34a.43.43,0,1,1,0-.85.43.43,0,0,1,0,.85Zm.22-3.41a.51.51,0,1,1,.51-.51A.51.51,0,0,1,131.27,107.09Zm.12-3.45a.58.58,0,0,1-.58-.57.59.59,0,0,1,1.17,0A.57.57,0,0,1,131.39,103.64Zm0-3.47a.64.64,0,0,1-.63-.64.63.63,0,0,1,.63-.63.64.64,0,0,1,.64.63A.64.64,0,0,1,131.42,100.17Zm.9-15.78a.75.75,0,0,1,1.5,0,.75.75,0,1,1-1.5,0Zm.47,3.58a.7.7,0,0,1,.7-.7.7.7,0,0,1,.71.7.71.71,0,0,1-.71.71A.7.7,0,0,1,132.79,88Zm1,3a.66.66,0,0,1,0,1.32.66.66,0,0,1,0-1.32Zm-.31,22.48a.23.23,0,1,1,0-.45.22.22,0,0,1,.22.23A.22.22,0,0,1,133.51,113.4Zm.31-3.42a.35.35,0,1,1,0-.69.35.35,0,0,1,0,.69Zm.21-3.5a.42.42,0,0,1-.43-.42.43.43,0,1,1,.86,0A.42.42,0,0,1,134,106.48Zm.11-3.53a.5.5,0,0,1-.5-.5.5.5,0,0,1,.5-.5.5.5,0,0,1,.5.5A.51.51,0,0,1,134.14,103Zm0-3.57a.55.55,0,0,1-.56-.55.57.57,0,0,1,.56-.57.57.57,0,0,1,.56.57A.56.56,0,0,1,134.14,99.38Zm.86-16a.67.67,0,0,1,.67-.67.67.67,0,1,1,0,1.34A.67.67,0,0,1,135,83.35Zm.5,3.66a.63.63,0,1,1,.63.64A.63.63,0,0,1,135.5,87Zm.4,3.68a.58.58,0,0,1,.59-.57.57.57,0,0,1,.58.57.58.58,0,0,1-.58.59A.59.59,0,0,1,135.9,90.69Zm.29,3.71a.54.54,0,1,1,.53.54A.53.53,0,0,1,136.19,94.4Zm.41,15a.23.23,0,1,1,0-.45.23.23,0,0,1,0,.45Zm.19-3.54a.36.36,0,1,1,0-.71.36.36,0,0,1,0,.71Zm.08-3.63a.42.42,0,0,1-.42-.42.42.42,0,1,1,.84,0A.42.42,0,0,1,136.87,102.25Zm0-3.65a.48.48,0,1,1,.49-.48A.48.48,0,0,1,136.85,98.6Zm.83-16.31a.6.6,0,0,1,1.19,0,.6.6,0,1,1-1.19,0Zm.53,3.75a.56.56,0,1,1,.55.56A.55.55,0,0,1,138.21,86Zm.43,3.77a.51.51,0,1,1,.51.51A.51.51,0,0,1,138.64,89.81ZM139,93.6a.46.46,0,0,1,.46-.45.46.46,0,1,1-.46.45Zm.59,11.62a.23.23,0,0,1-.24-.22.23.23,0,0,1,.24-.22.22.22,0,0,1,.22.22A.22.22,0,0,1,139.55,105.22Zm.06-3.66a.35.35,0,0,1-.34-.35.34.34,0,0,1,.34-.34.34.34,0,0,1,.35.34A.35.35,0,0,1,139.61,101.56Zm0-3.74a.41.41,0,0,1-.41-.41.42.42,0,0,1,.41-.41.41.41,0,0,1,.41.41A.41.41,0,0,1,139.57,97.82Zm.11-20.36a.57.57,0,1,1,.57.56A.57.57,0,0,1,139.68,77.46Zm.67,3.78a.52.52,0,0,1,.53-.52.52.52,0,0,1,.52.52.52.52,0,0,1-.52.52A.53.53,0,0,1,140.35,81.24Zm.57,3.83a.48.48,0,0,1,.48-.48.47.47,0,0,1,.48.48.48.48,0,0,1-.48.48A.49.49,0,0,1,140.92,85.07Zm.47,3.85a.43.43,0,0,1,.86,0,.43.43,0,1,1-.86,0Zm.34,3.89a.38.38,0,0,1,.39-.38.39.39,0,1,1-.39.38Zm.62,8a.22.22,0,0,1-.22-.22.23.23,0,1,1,.22.22ZM142.28,97a.33.33,0,0,1,0-.65.33.33,0,1,1,0,.65Zm0-20.73a.49.49,0,1,1,.49.49A.49.49,0,0,1,142.31,76.3Zm.72,3.87a.45.45,0,1,1,.89,0,.45.45,0,0,1-.89,0Zm.6,3.92a.4.4,0,1,1,.8,0,.4.4,0,0,1-.8,0Zm.5,3.94a.35.35,0,0,1,.35-.35.35.35,0,0,1,.35.35.35.35,0,0,1-.35.35A.34.34,0,0,1,144.13,88Zm.37,4a.31.31,0,0,1,.3-.3.3.3,0,0,1,.3.3.29.29,0,0,1-.3.3A.3.3,0,0,1,144.5,92Zm.51,4.22a.24.24,0,0,1-.24-.24.23.23,0,0,1,.24-.23.23.23,0,0,1,.23.23A.24.24,0,0,1,145,96.23Zm.35-20.69a.41.41,0,0,1-.42-.41.42.42,0,0,1,.42-.41.41.41,0,0,1,.4.41A.4.4,0,0,1,145.36,75.54Zm.71,3.91a.37.37,0,1,1,.36-.36A.36.36,0,0,1,146.07,79.45Zm.27,3.64a.32.32,0,0,1,.63,0,.32.32,0,0,1-.63,0Zm.53,4a.28.28,0,0,1,.27-.27.27.27,0,0,1,0,.53A.27.27,0,0,1,146.87,87.13Zm.61,4.29a.21.21,0,0,1-.21-.22.22.22,0,0,1,.21-.23.23.23,0,1,1,0,.45Zm.42-17.15a.33.33,0,1,1,.32-.33A.32.32,0,0,1,147.9,74.27Zm.29-9.59a.33.33,0,0,1,.33-.33.33.33,0,1,1,0,.66A.33.33,0,0,1,148.19,64.68Zm.45,13.58a.28.28,0,0,1-.27-.27.28.28,0,1,1,.55,0A.28.28,0,0,1,148.64,78.26Zm.05-37a.36.36,0,0,1-.36-.36.35.35,0,0,1,.36-.35.35.35,0,0,1,.35.35A.36.36,0,0,1,148.69,41.3Zm.58,41a.22.22,0,0,1-.22-.22.23.23,0,1,1,.22.22ZM149.53,69a.29.29,0,0,1-.28-.28.28.28,0,0,1,.28-.28.27.27,0,0,1,.28.28A.28.28,0,0,1,149.53,69Zm.28-9.36a.28.28,0,1,1,0-.56.28.28,0,0,1,0,.56ZM150.43,73a.23.23,0,1,1,.23-.23A.23.23,0,0,1,150.43,73Zm.24-19.11a.2.2,0,0,1,.2-.2.2.2,0,0,1,.21.2.2.2,0,0,1-.21.2A.19.19,0,0,1,150.67,53.85Zm.29,9.64a.21.21,0,0,1-.22-.21.22.22,0,0,1,.22-.22.22.22,0,0,1,.22.22A.21.21,0,0,1,151,63.49Zm.2-29.66a.22.22,0,0,1-.22-.23.23.23,0,0,1,.22-.23.24.24,0,0,1,.23.23A.23.23,0,0,1,151.16,33.83Zm.19-5.5a.23.23,0,0,1-.24-.22.24.24,0,0,1,.24-.23.23.23,0,0,1,.21.23A.21.21,0,0,1,151.35,28.33Z"/><path d="M95.1,110.21a1.58,1.58,0,0,1-.1.47,1.08,1.08,0,0,1,.32-.22A1.71,1.71,0,0,1,95.1,110.21Z"/><path d="M94.34,111.45a1,1,0,0,1,.19.29v0a1.5,1.5,0,0,1,.08-.47A1.94,1.94,0,0,1,94.34,111.45Z"/><path d="M98.24,104.54a1.51,1.51,0,0,1-.11.56,1.24,1.24,0,0,1,.41-.31A1.81,1.81,0,0,1,98.24,104.54Z"/><path d="M91.43,115.73a1.21,1.21,0,0,1,.3-.2,1.87,1.87,0,0,1-.2-.29A1.34,1.34,0,0,1,91.43,115.73Z"/><path d="M100.87,95.86a1.31,1.31,0,0,1-.06.41,1.53,1.53,0,0,1,.31-.26A1.65,1.65,0,0,1,100.87,95.86Z"/><path d="M101.31,98.63a1.31,1.31,0,0,1-.37-.24v0a1.52,1.52,0,0,1-.17.71A1.34,1.34,0,0,1,101.31,98.63Z"/><path d="M102.53,90.71a1.76,1.76,0,0,1,.06-.41,1.48,1.48,0,0,1-.26.3,1.28,1.28,0,0,1,.21.14S102.53,90.72,102.53,90.71Z"/><path d="M102.88,89.35v0a1.43,1.43,0,0,1-.07.46,1.61,1.61,0,0,1,.35-.34A1,1,0,0,1,102.88,89.35Z"/><path d="M98.39,102.12a1.54,1.54,0,0,1,0,.31,1.46,1.46,0,0,1,.24-.17C98.51,102.22,98.45,102.16,98.39,102.12Z"/><path d="M102.84,93.49v-.07a1.46,1.46,0,0,1,.72-1.27,1.53,1.53,0,0,1-.4-.22V92a1.6,1.6,0,0,1-.64,1.27A1.24,1.24,0,0,1,102.84,93.49Z"/><path d="M100.5,105.47a2.4,2.4,0,0,1,0-.28,1.39,1.39,0,0,1,.94-1.31,1.51,1.51,0,0,1-.6-.49s0,.1,0,.14a1.47,1.47,0,0,1-.84,1.33A1.47,1.47,0,0,1,100.5,105.47Z"/><path d="M100.49,96.89a1.65,1.65,0,0,1-.24.22l.18.15A1.51,1.51,0,0,1,100.49,96.89Z"/><path d="M100.54,102.56a1.43,1.43,0,0,1,.86-1.3,1.3,1.3,0,0,1-.48-.35V101a1.53,1.53,0,0,1-.76,1.32,1.45,1.45,0,0,1,.39.39A.62.62,0,0,1,100.54,102.56Z"/><path d="M100.53,99.92a1.43,1.43,0,0,1,.16-.66,1.61,1.61,0,0,1-.45.45,1.45,1.45,0,0,1,.29.26Z"/></g></g></svg>