<svg xmlns="http://www.w3.org/2000/svg" viewBox="0 0 165.4 149.56"><title>Jewellery</title><g id="Ebene_2" data-name="Ebene 2"><g id="Ebene_2-2" data-name="Ebene 2"><path d="M50.65,26.75a32.46,32.46,0,0,0,64.1,0c-9.83-3.38-10.1-18.63-9.82-24.47A2.17,2.17,0,0,0,102.77,0H62.63a2.17,2.17,0,0,0-2.16,2.28C60.75,8.12,60.48,23.37,50.65,26.75Z"/><path d="M163.16,26.3c-6.36.25-22.25.85-35.43,1.07,0,.55.09,1.1.09,1.66a45.12,45.12,0,1,1-90.24,0c0-.56.07-1.11.09-1.66C24.49,27.15,8.6,26.55,2.24,26.3A2.14,2.14,0,0,0,.06,28.93c4,17,25.49,91.66,29.68,118.81a2.16,2.16,0,0,0,2.14,1.82H133.52a2.16,2.16,0,0,0,2.14-1.82c4.19-27.15,25.65-101.8,29.68-118.81A2.14,2.14,0,0,0,163.16,26.3ZM98.56,96.53,84.9,110.2a3.12,3.12,0,0,1-4.4,0L66.84,96.53a3.1,3.1,0,0,1,0-4.4L80.5,78.47a3.1,3.1,0,0,1,4.4,0L98.56,92.13A3.1,3.1,0,0,1,98.56,96.53Z"/></g></g></svg>