<?xml version="1.0" encoding="utf-8"?>
<!-- Generator: Adobe Illustrator 21.1.0, SVG Export Plug-In . SVG Version: 6.00 Build 0)  -->
<svg version="1.1" xmlns="http://www.w3.org/2000/svg" xmlns:xlink="http://www.w3.org/1999/xlink" x="0px" y="0px"
	 viewBox="0 0 640 480" style="enable-background:new 0 0 640 480;" xml:space="preserve">
<style type="text/css">
	.st0{fill:#FFFFFF;}
	.st1{fill:#727272;}
</style>
<g id="Layer_1">
	<rect class="st0" width="640" height="480"/>
	<g>
		<path class="st1" d="M317.5,5C188,5,83,110,83,239.5S188,474,317.5,474S552,369,552,239.5S447,5,317.5,5z M500.2,148.7h-78
			c-8.5-42-22.8-77.7-40.8-103.2C433.3,62.8,476.1,100.3,500.2,148.7z M400.7,239.5c0,21.7-1.5,41.8-4.1,60.5H238.4
			c-2.6-18.7-4.1-38.9-4.1-60.5s1.5-41.8,4.1-60.5h158.3C399.2,197.7,400.7,217.8,400.7,239.5z M317.5,35.3
			c25.4,0,58.1,41.7,73.8,113.5H243.7C259.4,77,292.1,35.3,317.5,35.3z M253.7,45.6c-18,25.3-32.3,61.1-40.8,103.2h-78
			C158.9,100.3,201.7,62.8,253.7,45.6z M113.3,239.5c0-21.1,3.2-41.4,9.2-60.5H208c-2.5,19.4-4,39.5-4,60.5s1.4,41.1,4,60.5h-85.6
			C116.5,280.9,113.3,260.6,113.3,239.5z M134.8,330.3h78c8.5,42,22.8,77.7,40.8,103.2C201.7,416.2,158.9,378.7,134.8,330.3z
			 M317.5,443.7c-25.4,0-58.1-41.7-73.8-113.5h147.7C375.6,402,342.9,443.7,317.5,443.7L317.5,443.7z M381.3,433.4
			c18-25.3,32.3-61.1,40.8-103.2h78C476.1,378.7,433.3,416.2,381.3,433.4z M427,300c2.5-19.4,4-39.5,4-60.5s-1.4-41.1-4-60.5h85.6
			c6,19.1,9.2,39.4,9.2,60.5s-3.2,41.4-9.2,60.5H427z"/>
	</g>
</g>
<g id="Layer_2">
</g>
</svg>
