<svg xmlns="http://www.w3.org/2000/svg" viewBox="0 0 129.23 149.65"><title>Mens_collection_2</title><g id="Ebene_2" data-name="Ebene 2"><g id="Ebene_2-2" data-name="Ebene 2"><path d="M110.57,24.58A3.06,3.06,0,0,1,112,26.77l1.9,14.36a3,3,0,0,1-1.5,3l-1.69,1a3,3,0,0,0,0,5.3h0a3,3,0,0,1,1.45,3.44c-2,7.29-8.4,30-11.93,36.31-2,3.62-10.18,17.28-18.2,30.59l-11.83,19.6h0l-5.56,9.28h54.05a3,3,0,0,0,3-2.84l7.48-109.15a3,3,0,0,0-1.5-2.83Z"/><path d="M18.66,24.58a3.06,3.06,0,0,0-1.43,2.19l-1.9,14.36a3,3,0,0,0,1.51,3l1.68,1a3,3,0,0,1,0,5.3,3,3,0,0,0-1.45,3.44c2,7.29,8.41,30,11.93,36.31,2,3.62,10.18,17.27,18.2,30.59L59,140.37h0l5.57,9.28H10.52a3,3,0,0,1-3-2.84L0,37.66A3,3,0,0,1,1.5,34.83Z"/><path d="M40.41,3.17c-.07.13-2.81,5.36-4.47,8.69S33.2,26.62,38.05,53.4c2.24,12.38,8.09,33.86,13.73,53.39l7.09-46.32a.62.62,0,0,1,.62-.53h10.3a.61.61,0,0,1,.61.53l6.93,46.76C83,87.59,88.93,65.87,91.19,53.4,96,26.62,95,15.23,93.3,11.86s-4.41-8.57-4.48-8.69a50.36,50.36,0,0,0-10.23-2h0A111.45,111.45,0,0,0,64.62,0,108.42,108.42,0,0,0,50.91,1.08h0A51.39,51.39,0,0,0,40.41,3.17ZM66.49,39.4l18.89-3.54a.62.62,0,0,1,.7.82L79.92,54.53a.62.62,0,0,1-1,.21L66.14,40.43A.63.63,0,0,1,66.49,39.4Zm-1.38,4.43L72,52a.63.63,0,0,1,.12.59l-1.5,4.73a.62.62,0,0,1-.59.43H59.23a.62.62,0,0,1-.6-.45l-1.41-4.82a.59.59,0,0,1,.12-.57l6.82-8.05A.61.61,0,0,1,65.11,43.83Zm-2-3.21L51,55.08a.62.62,0,0,1-1.06-.19L43.16,37a.62.62,0,0,1,.69-.84l18.9,3.47A.62.62,0,0,1,63.12,40.62Z"/></g></g></svg>