<svg xmlns="http://www.w3.org/2000/svg" viewBox="0 0 164.09 142.12"><title>Repair_service</title><g id="Ebene_2" data-name="Ebene 2"><g id="Ebene_2-2" data-name="Ebene 2"><path d="M118.71,61.68c12.08,5.3,23.67,4.25,34-4s11.46-32.89,11.37-33.23a1.29,1.29,0,0,0-2.07-.67c-2.52,2.1-4.88,4.06-7.26,6-4.33,3.53-8.67,7.07-13.06,10.53a3.25,3.25,0,0,1-2.3.74c-4.89-1-9.76-2-14.8-3.12a1.4,1.4,0,0,1-.62-.34,1.23,1.23,0,0,1-.2-.68c0-5.15-.07-10.14,0-15.13a3.27,3.27,0,0,1,1.2-2.09c4.3-3.58,8.66-7.09,13-10.59,2.39-1.93,4.8-3.83,7.37-5.86a1.29,1.29,0,0,0-.22-2.16c-.31-.16-24.68-4.18-34.87,4.22s-13.63,19.54-11,32.46c.35,1.66.19,2.57-1.19,3.68-36,29.07-42.38,37.48-78.2,66.73a16.74,16.74,0,0,0-13.36,3.35,17.08,17.08,0,1,0,27.59,14.13c36-29,44.8-34.45,80.68-63.59C116.23,61,117.15,61,118.71,61.68ZM13.42,127.91a4.66,4.66,0,1,1,6.57.75A4.66,4.66,0,0,1,13.42,127.91Z"/></g></g></svg>