<svg xmlns="http://www.w3.org/2000/svg" viewBox="0 0 180.02 73.56"><title>Member_products_1</title><g id="Ebene_2" data-name="Ebene 2"><g id="Ebene_2-2" data-name="Ebene 2"><path d="M43.54,35.81c-4.88-2.68-10.3-3.57-15.63-4.79a130.67,130.67,0,0,1-12.7-3.28,8.47,8.47,0,0,1-6-9.19,11.3,11.3,0,0,1,5.39-9.22c6.16-3.75,12.8-4.17,19.61-2.45a19.84,19.84,0,0,1,4.89,1.91h0C45.87,13.17,45,19.05,45,19.05h2.86V3.38c-.65-.31-1.29-.59-1.9-.83a7,7,0,0,0-1.25-.47A25.4,25.4,0,0,0,38,.64a47.14,47.14,0,0,0-19.43.81C11.72,3.23,5.7,6.36,2.1,12.77s-3,16.77,5.1,21.29A44.41,44.41,0,0,0,16.63,38c5.79,1.63,11.71,2.76,17.55,4.23,3.23.82,6,2.5,7.35,5.72a13.44,13.44,0,0,1-4.39,16C31.59,68,25.31,68.42,18.87,67A19.42,19.42,0,0,1,4.55,55.65,14.4,14.4,0,0,1,4.11,51H1.26V68.7a30.08,30.08,0,0,0,3.88,1.55c.55.22,1.19.47,2,.75,8.28,3.09,16.77,3.15,25.31,1.44C44.2,70.08,52.83,62,51.52,48.19A14.87,14.87,0,0,0,43.54,35.81Z"/><path d="M171.91,35.81c-4.87-2.68-10.3-3.57-15.63-4.79-4.26-1-8.56-1.88-12.7-3.28a8.45,8.45,0,0,1-6-9.19A11.25,11.25,0,0,1,143,9.33c6.16-3.75,12.8-4.17,19.61-2.45a20,20,0,0,1,4.89,1.91h0c6.79,4.37,5.89,10.25,5.89,10.25h2.85V3.38c-.65-.31-1.28-.59-1.9-.83a6.73,6.73,0,0,0-1.25-.47,25.4,25.4,0,0,0-6.7-1.44,47.09,47.09,0,0,0-19.42.81c-6.84,1.78-12.85,4.91-16.46,11.32s-3,16.77,5.11,21.29A44,44,0,0,0,145,38c5.78,1.63,11.71,2.76,17.54,4.23,3.24.82,6,2.5,7.35,5.72a13.44,13.44,0,0,1-4.39,16C160,68,153.68,68.42,147.25,67a19.39,19.39,0,0,1-14.32-11.36,14.25,14.25,0,0,1-.45-4.68h-2.85V68.7a30.66,30.66,0,0,0,3.88,1.55c.55.22,1.19.47,2,.75,8.27,3.09,16.77,3.15,25.31,1.44C172.57,70.08,181.2,62,179.89,48.19A14.85,14.85,0,0,0,171.91,35.81Z"/><path d="M118.64,58.31s-5.39,3.55-6.83,4.48c-1.21.55-2.43,1.07-3.67,1.53-7,2.6-14,3-21-.2C73.61,57.82,66.83,40.39,70,26.6,73,13.13,84.45,5.77,97.28,6.74c4.48.34,8.52,1.47,11.7,3.89a11.76,11.76,0,0,1,4,9.65h2.86V3.79a28,28,0,0,0-9-2.66c-.92-.21-1.85-.38-2.78-.5a41.16,41.16,0,0,0-34,10.43c-12.06,10.7-13.67,30.11-6.88,43.86,9.28,18.77,31.57,22.44,47.46,15a46,46,0,0,0,7.94-4.31Z"/></g></g></svg>