<svg id="_" data-name="i" xmlns="http://www.w3.org/2000/svg" viewBox="0 0 30.02 30"><defs><style>.cls-1{fill:#b8b7b6;}</style></defs><title>tooltip</title><g id="Ellipse_2_copy" data-name="Ellipse 2 copy"><path class="cls-1" d="M16.13,2A13.5,13.5,0,1,1,2.62,15.5,13.52,13.52,0,0,1,16.13,2m0-1.5a15,15,0,1,0,15,15,15,15,0,0,0-15-15h0Z" transform="translate(-1.12 -0.5)"/></g><path class="cls-1" d="M16.55,20.68a1,1,0,0,1,.28.69,1,1,0,0,1-.28.7,0.86,0.86,0,0,1-.66.29,0.89,0.89,0,0,1-.67-0.29,1,1,0,0,1-.27-0.7,1,1,0,0,1,.27-0.69,0.91,0.91,0,0,1,.67-0.28A0.87,0.87,0,0,1,16.55,20.68Zm-1.35-1.21V8.85h1.38V19.47H15.21Z" transform="rotate(180) translate(-30.92 -30.5)"/></svg>